<svg width="223" height="312" viewBox="0 0 223 312" fill="none" xmlns="http://www.w3.org/2000/svg">
<path fill-rule="evenodd" clip-rule="evenodd" d="M157.219 152.594C157.966 154.892 159.244 156.98 160.951 158.689C163.087 160.823 165.807 162.276 168.768 162.864C171.73 163.452 174.799 163.149 177.588 161.993C180.377 160.837 182.76 158.88 184.437 156.37C186.114 153.86 187.009 150.909 187.009 147.89C187.009 144.871 186.114 141.92 184.437 139.41C182.76 136.9 180.377 134.943 177.588 133.787C174.799 132.631 171.73 132.328 168.768 132.916C165.807 133.504 163.087 134.957 160.951 137.091C159.243 138.797 157.964 140.884 157.219 143.18H133.578L134.601 152.594H157.219ZM165.899 147.777C165.921 146.264 166.529 144.819 167.595 143.745C168.416 142.929 169.46 142.375 170.595 142.151C171.731 141.928 172.907 142.045 173.975 142.49C175.044 142.934 175.957 143.685 176.599 144.647C177.242 145.61 177.585 146.741 177.585 147.898C177.585 149.056 177.242 150.187 176.599 151.15C175.957 152.112 175.044 152.863 173.975 153.307C172.907 153.751 171.731 153.869 170.595 153.646C169.46 153.422 168.416 152.867 167.595 152.051C166.531 150.979 165.923 149.536 165.899 148.026V147.777Z" fill="#B0B0B0"/>
<path fill-rule="evenodd" clip-rule="evenodd" d="M38.3302 171.923H91.2596L92.6172 170.682L111.822 153.187H115.231L114.447 143.531H108.397L107.034 144.772L87.6412 162.421H46.8507L55.4791 86.6389H113.118L119.593 143.508L120.672 152.987L123.126 177.468L132.601 177.172L130.181 152.987L129.102 143.508L122.626 86.6389H131.545V77.1768H122.064V46.3368H132.624V36.852H121.382C119.862 28.8716 115.932 21.5521 110.124 15.884C103.728 10.0769 98.9792 5.80136 90.4473 4.27559V0H76.4282V4.55455C67.9077 6.08032 62.8465 10.3559 57.0582 16.1573C51.3786 21.7909 47.4856 28.9804 45.868 36.8235H36.2568V46.3084H46.5269V77.1483H37.0464V86.6332H45.9645L36.2568 171.894L38.3302 171.923ZM83.7729 12.1037C98.9678 12.1037 111.368 24.1505 112.095 36.852H55.4223C56.1494 24.1505 68.5496 12.1037 83.7729 12.1037ZM112.629 46.3368V77.1768H89.1578V62.5738H79.7001V77.1768H55.9903V46.3368H112.629Z" fill="#B0B0B0"/>
<path fill-rule="evenodd" clip-rule="evenodd" d="M217.833 175.258C214.951 172.396 211.045 170.789 206.971 170.789C202.898 170.789 198.991 172.396 196.109 175.258C194.391 176.967 193.103 179.056 192.352 181.354H35.4303L34.3486 190.783H192.329C193.049 192.976 194.26 194.98 195.871 196.642C197.481 198.304 199.45 199.582 201.628 200.379C203.806 201.177 206.138 201.474 208.449 201.247C210.759 201.021 212.987 200.277 214.967 199.072C216.947 197.867 218.627 196.232 219.88 194.289C221.133 192.347 221.927 190.147 222.203 187.855C222.479 185.564 222.229 183.24 221.472 181.058C220.715 178.877 219.471 176.893 217.833 175.258ZM211.133 190.217C210.315 191.029 209.274 191.585 208.141 191.814C207.007 192.043 205.831 191.936 204.759 191.506C203.686 191.076 202.764 190.342 202.108 189.395C201.452 188.449 201.09 187.331 201.068 186.181V185.955C201.089 184.442 201.701 182.997 202.775 181.925C203.324 181.38 203.975 180.948 204.691 180.652C205.408 180.357 206.176 180.206 206.951 180.206C207.727 180.206 208.495 180.357 209.211 180.652C209.928 180.948 210.579 181.38 211.127 181.925C211.675 182.47 212.11 183.118 212.407 183.83C212.704 184.542 212.857 185.306 212.857 186.076C212.857 186.847 212.704 187.611 212.407 188.323C212.11 189.036 211.675 189.683 211.127 190.228L211.133 190.217Z" fill="#B0B0B0"/>
<path fill-rule="evenodd" clip-rule="evenodd" d="M140.025 237.894C141.835 237.119 143.482 236.007 144.877 234.617C146.866 232.634 148.271 230.143 148.941 227.415C149.61 224.688 149.518 221.83 148.673 219.151C147.828 216.473 146.264 214.078 144.151 212.228C142.038 210.377 139.457 209.143 136.69 208.658L135.19 195.596H125.685L127.327 209.993C125.466 210.898 123.807 212.17 122.449 213.731C121.091 215.292 120.062 217.111 119.424 219.079H90.6417L71.2452 201.474L69.8817 200.236H33.1682L21.4872 302.539H0V312H168.881V302.539H147.399L140.025 237.894ZM84.4432 302.476H30.9922L41.5938 209.635H66.2512L85.6477 227.24L87.0112 228.484H119.424C120.246 231.009 121.708 233.278 123.669 235.069C125.629 236.861 128.021 238.114 130.611 238.706L137.894 302.476H84.4432ZM138.184 227.939C137.366 228.757 136.325 229.315 135.191 229.545C134.057 229.774 132.88 229.664 131.808 229.228C130.737 228.792 129.817 228.05 129.166 227.094C128.514 226.138 128.159 225.012 128.145 223.855V223.702C128.156 222.737 128.404 221.789 128.868 220.943C129.332 220.096 129.998 219.377 130.805 218.848C131.613 218.319 132.539 217.997 133.5 217.91C134.462 217.823 135.43 217.974 136.32 218.35C137.209 218.725 137.993 219.313 138.601 220.063C139.21 220.812 139.624 221.7 139.808 222.647C139.993 223.595 139.941 224.573 139.657 225.496C139.374 226.419 138.868 227.257 138.184 227.939Z" fill="#B0B0B0"/>
</svg>
