<?xml version="1.0" standalone="no"?>
<!DOCTYPE svg PUBLIC "-//W3C//DTD SVG 1.1//EN" "http://www.w3.org/Graphics/SVG/1.1/DTD/svg11.dtd" >
<svg xmlns="http://www.w3.org/2000/svg">
<metadata>Generated by IcoMoon</metadata>
<defs>
<font id="icomoon" horiz-adv-x="1024">
<font-face units-per-em="1024" ascent="960" descent="-64" />
<missing-glyph horiz-adv-x="1024" />
<glyph unicode="&#x20;" horiz-adv-x="512" d="" />
<glyph unicode="&#xe900;" glyph-name="advertisement" d="M256 106.667v85.333h85.333v-42.667c0-47.13 38.205-85.333 85.333-85.333h128c47.13 0 85.333 38.204 85.333 85.333v85.333h128v-42.667c0-47.13 38.204-85.333 85.333-85.333h85.333c47.13 0 85.333 38.204 85.333 85.333v597.333c0 47.128-38.204 85.333-85.333 85.333h-853.333c-47.128 0-85.333-38.205-85.333-85.333v-682.667c0-47.13 38.205-85.333 85.333-85.333h85.333c47.128 0 85.333 38.204 85.333 85.333zM85.333 106.667v682.667h853.333v-597.333h-85.333v170.667h-85.333v-42.667h-128v42.667h-85.333v-213.333h-128v213.333h-85.333v-85.333h-85.333v85.333h-85.333v-256h-85.333zM810.667 704v-85.333h-597.333v85.333h597.333zM682.667 448v85.333h-469.333v-85.333h469.333z" />
<glyph unicode="&#xe901;" glyph-name="atom" d="M837.453 448c89.293 146.015 111.718 286.908 36.587 362.036-75.127 75.129-216.021 52.704-362.039-36.586-146.014 89.29-286.908 111.715-362.036 36.586s-52.704-216.022 36.586-362.036c-89.29-146.018-111.715-286.912-36.586-362.039 75.129-75.132 216.022-52.706 362.036 36.587 146.018-89.293 286.912-111.718 362.039-36.587 75.132 75.127 52.706 216.021-36.587 362.039zM391.322 568.678c39.526 39.526 80.434 73.776 120.678 102.277 40.247-28.5 81.156-62.751 120.683-102.277s73.775-80.434 102.276-120.678c-28.501-40.247-62.75-81.156-102.276-120.683s-80.435-73.775-120.683-102.276c-40.243 28.501-81.152 62.75-120.678 102.276s-73.776 80.435-102.277 120.683c28.5 40.243 62.751 81.152 102.277 120.678zM210.303 749.697c36.756 36.756 123.374 23.932 223.647-30.059-34.924-26.83-69.523-57.177-102.967-90.621s-63.791-68.043-90.621-102.967c-53.991 100.273-66.815 186.89-30.059 223.647zM693.022 629.017c-33.446 33.444-68.045 63.791-102.967 90.621 100.271 53.991 186.889 66.815 223.646 30.059s23.932-123.374-30.059-223.647c-26.829 34.924-57.178 69.523-90.62 102.967zM693.022 266.978c33.442 33.446 63.791 68.045 90.62 102.967 53.99-100.271 66.816-186.889 30.059-223.646s-123.375-23.932-223.646 30.059c34.923 26.829 69.521 57.178 102.967 90.62zM240.362 369.946c26.83-34.923 57.177-69.521 90.621-102.967 33.444-33.442 68.043-63.791 102.967-90.62-100.273-53.99-186.89-66.816-223.647-30.059s-23.932 123.375 30.059 223.646zM554.667 448c0-23.565-19.102-42.667-42.667-42.667-23.561 0-42.667 19.102-42.667 42.667 0 23.561 19.106 42.667 42.667 42.667 23.565 0 42.667-19.106 42.667-42.667z" />
<glyph unicode="&#xe902;" glyph-name="bone" d="M42.667 362.667c0-94.255 76.41-170.667 170.667-170.667 62.153 0 117.927 33.527 147.842 85.333h301.652c29.914-51.806 85.687-85.333 147.84-85.333 94.255 0 170.667 76.412 170.667 170.667 0 30.477-8.047 59.755-22.835 85.333 14.788 25.579 22.835 54.857 22.835 85.333 0 94.257-76.412 170.667-170.667 170.667-62.153 0-117.926-33.529-147.84-85.333h-301.652c-29.914 51.804-85.689 85.333-147.842 85.333-94.257 0-170.667-76.41-170.667-170.667 0-30.477 8.047-59.755 22.836-85.333-14.789-25.579-22.836-54.857-22.836-85.333zM303.877 362.667l-10.055-28.45c-11.949-33.805-44.029-56.883-80.489-56.883-47.128 0-85.333 38.204-85.333 85.333 0 21.325 7.795 41.323 21.719 56.879l25.468 28.454-25.468 28.454c-13.924 15.556-21.719 35.554-21.719 56.879 0 47.128 38.205 85.333 85.333 85.333 36.46 0 68.54-23.078 80.489-56.885l10.055-28.448h416.247l10.052 28.448c11.951 33.807 44.032 56.885 80.491 56.885 47.13 0 85.333-38.205 85.333-85.333 0-21.325-7.795-41.323-21.717-56.879l-25.468-28.454 25.468-28.454c13.922-15.556 21.717-35.554 21.717-56.879 0-47.13-38.204-85.333-85.333-85.333-36.459 0-68.54 23.078-80.491 56.883l-10.052 28.45h-416.247z" />
<glyph unicode="&#xe903;" glyph-name="brightness-high" d="M554.667 743.642c-13.935 1.993-28.181 3.025-42.667 3.025s-28.732-1.031-42.667-3.025v171.778c14.054 1.266 28.284 1.913 42.667 1.913s28.612-0.647 42.667-1.913v-171.778zM298.667 448c0-117.82 95.513-213.333 213.333-213.333s213.333 95.514 213.333 213.333c0 117.821-95.514 213.333-213.333 213.333s-213.333-95.513-213.333-213.333zM640 448c0-70.694-57.306-128-128-128s-128 57.306-128 128c0 70.694 57.306 128 128 128s128-57.306 128-128zM554.667-19.422v171.78c-13.935-1.993-28.181-3.025-42.667-3.025s-28.732 1.033-42.667 3.025v-171.78c14.054-1.263 28.284-1.911 42.667-1.911s28.612 0.649 42.667 1.911zM807.642 490.667h171.78c1.263-14.054 1.911-28.284 1.911-42.667s-0.649-28.612-1.911-42.667h-171.78c1.993 13.935 3.025 28.181 3.025 42.667s-1.033 28.732-3.025 42.667zM213.333 448c0 14.485 1.031 28.732 3.025 42.667h-171.778c-1.266-14.054-1.913-28.284-1.913-42.667s0.647-28.612 1.913-42.667h171.778c-1.993 13.935-3.025 28.181-3.025 42.667zM690.867 687.206l121.468 121.467c21.888-18.247 42.091-38.45 60.339-60.34l-121.468-121.467c-17.131 22.874-37.466 43.209-60.339 60.34zM151.327 748.333l121.467-121.467c17.131 22.874 37.466 43.209 60.34 60.34l-121.467 121.467c-21.889-18.247-42.092-38.45-60.34-60.34zM751.206 269.133l121.468-121.468c-18.249-21.888-38.451-42.091-60.339-60.339l-121.468 121.468c22.874 17.131 43.209 37.466 60.339 60.339zM211.667 87.326l121.467 121.468c-22.874 17.131-43.209 37.466-60.34 60.339l-121.467-121.468c18.247-21.888 38.45-42.091 60.34-60.339z" />
<glyph unicode="&#xe904;" glyph-name="brightness-low" d="M554.667 743.642c-13.935 1.993-28.181 3.025-42.667 3.025s-28.732-1.031-42.667-3.025v86.014c14.007 1.549 28.245 2.344 42.667 2.344s28.659-0.795 42.667-2.344v-86.014zM298.667 448c0-117.82 95.513-213.333 213.333-213.333s213.333 95.514 213.333 213.333c0 117.821-95.514 213.333-213.333 213.333s-213.333-95.513-213.333-213.333zM640 448c0-70.694-57.306-128-128-128s-128 57.306-128 128c0 70.694 57.306 128 128 128s128-57.306 128-128zM554.667 66.342v86.016c-13.935-1.993-28.181-3.025-42.667-3.025s-28.732 1.033-42.667 3.025v-86.016c14.007-1.549 28.245-2.342 42.667-2.342s28.659 0.794 42.667 2.342zM807.642 490.667h86.016c1.549-14.007 2.342-28.245 2.342-42.667s-0.794-28.659-2.342-42.667h-86.016c1.993 13.935 3.025 28.181 3.025 42.667s-1.033 28.732-3.025 42.667zM213.333 448c0 14.485 1.031 28.732 3.025 42.667h-86.014c-1.549-14.007-2.344-28.245-2.344-42.667s0.795-28.659 2.344-42.667h86.014c-1.993 13.935-3.025 28.181-3.025 42.667zM690.867 687.206l60.821 60.822c22.272-17.818 42.522-38.065 60.339-60.34l-60.821-60.822c-17.131 22.874-37.466 43.209-60.339 60.34zM211.972 687.688l60.822-60.822c17.131 22.874 37.466 43.209 60.34 60.34l-60.822 60.822c-22.275-17.818-42.522-38.065-60.34-60.34zM751.206 269.133l60.821-60.821c-17.818-22.272-38.067-42.522-60.339-60.339l-60.821 60.821c22.874 17.131 43.209 37.466 60.339 60.339zM272.312 147.972l60.822 60.821c-22.874 17.131-43.209 37.466-60.34 60.339l-60.822-60.821c17.818-22.272 38.065-42.522 60.34-60.339z" />
<glyph unicode="&#xe905;" glyph-name="contrast" d="M512-21.333c-259.206 0-469.333 210.129-469.333 469.333 0 259.206 210.128 469.333 469.333 469.333 259.204 0 469.333-210.128 469.333-469.333 0-259.204-210.129-469.333-469.333-469.333zM597.333 73.515c29.922 6.793 58.517 17.075 85.333 30.4v688.17c-26.816 13.327-55.411 23.61-85.333 30.4v-748.97zM853.333 271.906c-21.589-41.762-50.62-79.057-85.333-110.127v572.442c34.714-31.071 63.744-68.365 85.333-110.128v-352.188zM512 64v768c-212.077 0-384-171.923-384-384 0-212.079 171.923-384 384-384z" />
<glyph unicode="&#xe906;" glyph-name="cross" d="M843.853 618.667c52.365 0 94.814-34.732 94.814-77.576v-186.181c0-42.846-42.449-77.577-94.814-77.577h-161.186v-161.186c0-52.365-34.731-94.814-77.577-94.814h-186.181c-42.844 0-77.576 42.449-77.576 94.814v161.186h-161.185c-52.365 0-94.815 34.731-94.815 77.577v186.181c0 42.844 42.45 77.576 94.815 77.576h161.185v161.185c0 52.365 34.732 94.815 77.576 94.815h186.181c42.846 0 77.577-42.45 77.577-94.815v-161.185h161.186zM853.333 533.333h-256v256h-170.667v-256h-256v-170.667h256v-256h170.667v256h256v170.667z" />
<glyph unicode="&#xe907;" glyph-name="crosshairs" d="M469.333 917.333v-87.677c-177.989-19.676-319.314-161.001-338.99-338.99h-87.677v-85.333h87.677c19.676-177.988 161.001-319.313 338.99-338.991v-87.676h85.333v87.676c177.988 19.678 319.313 161.003 338.991 338.991h87.676v85.333h-87.676c-19.678 177.989-161.003 319.314-338.991 338.99v87.677h-85.333zM216.358 405.333h82.309v85.333h-82.309c18.71 130.803 122.173 234.266 252.975 252.975v-82.309h85.333v82.309c130.803-18.71 234.266-122.173 252.975-252.975h-82.308v-85.333h82.308c-18.709-130.803-122.172-234.266-252.975-252.975v82.308h-85.333v-82.308c-130.803 18.709-234.266 122.172-252.975 252.975zM426.667 448c0 47.13 38.204 85.333 85.333 85.333s85.333-38.204 85.333-85.333c0-47.13-38.204-85.333-85.333-85.333s-85.333 38.204-85.333 85.333z" />
<glyph unicode="&#xe908;" glyph-name="cup" d="M554.667 149.333v45.692c84.629 12.105 157.815 59.686 204.002 127.202 115.802 15.953 179.998 116.267 179.998 253.773v128c0 47.128-38.204 85.333-85.333 85.333h-54.084c-14.754 25.506-42.33 42.667-73.916 42.667h-426.667c-31.585 0-59.163-17.161-73.917-42.667h-54.083c-47.128 0-85.333-38.205-85.333-85.333v-128c0-137.506 64.195-237.82 179.996-253.773 46.19-67.516 119.375-115.098 204.004-127.202v-45.692h-42.667c-47.128 0-85.333-38.204-85.333-85.333h341.333c0 47.13-38.204 85.333-85.333 85.333h-42.667zM170.667 704h42.667v-213.333c0-19.533 1.875-38.622 5.454-57.109-31.469 28.326-48.121 77.107-48.121 142.443v128zM810.667 704v-213.333c0-19.533-1.873-38.622-5.453-57.109 31.467 28.326 48.119 77.107 48.119 142.443v128h-42.667zM298.667 490.667v256h426.667v-256c0-117.82-95.514-213.333-213.333-213.333s-213.333 95.514-213.333 213.333z" />
<glyph unicode="&#xe909;" glyph-name="form" d="M861.090 832c42.846 0 77.577-38.205 77.577-85.333v-85.333c0-47.128-34.731-85.333-77.577-85.333h-698.181c-42.844 0-77.576 38.205-77.576 85.333v85.333c0 47.128 34.732 85.333 77.576 85.333h698.181zM162.909 490.667h698.181c42.846 0 77.577-38.204 77.577-85.333v-85.333c0-47.13-34.731-85.333-77.577-85.333h-698.181c-42.844 0-77.576 38.204-77.576 85.333v85.333c0 47.13 34.732 85.333 77.576 85.333zM170.667 405.333v-85.333h682.667v85.333h-682.667zM170.667 746.667v-85.333h682.667v85.333h-682.667zM597.333 149.333v-85.333h-512v85.333h512z" />
<glyph unicode="&#xe90a;" glyph-name="infinity" d="M592.866 554.906c-15.821 29.4-31.236 53.848-47.283 73.86 5.444 5.583 10.069 10.252 12.843 12.896 46.046 43.851 91.422 62.338 166.908 62.338 137.216 0 256-110.864 256-256s-118.784-256-256-256c-121.707 0-173.41 63.309-252.241 238.49-65.169 144.82-100.577 188.177-174.426 188.177-96.039 0-170.667-79.704-170.667-170.667 0-91.354 74.025-170.667 170.667-170.667 44.515 0 97.719 17.711 144.183 42.782 16.508-28.39 32.853-51.439 50.24-69.743-59.844-34.091-129.951-58.372-194.423-58.372-145.136 0-256 118.784-256 256 0 136.881 111.532 256 256 256 121.708 0 173.41-63.31 252.241-238.49 65.169-144.819 100.578-188.177 174.426-188.177 91.354 0 170.667 74.027 170.667 170.667 0 96.642-79.313 170.667-170.667 170.667-53.376 0-77.743-9.926-108.058-38.798-4.006-3.817-13.982-14.125-24.41-24.963z" />
<glyph unicode="&#xe90b;" glyph-name="items" d="M277.333 490.667c-106.039 0-192 85.961-192 192s85.961 192 192 192c106.039 0 192-85.961 192-192s-85.961-192-192-192zM85.333 213.333c0-106.039 85.961-192 192-192s192 85.961 192 192c0 106.039-85.961 192-192 192s-192-85.961-192-192zM554.667 213.333c0-106.039 85.961-192 192-192s192 85.961 192 192c0 106.039-85.961 192-192 192s-192-85.961-192-192zM554.667 682.667c0-106.039 85.961-192 192-192s192 85.961 192 192c0 106.039-85.961 192-192 192s-192-85.961-192-192zM746.667 576c58.91 0 106.667 47.756 106.667 106.667s-47.757 106.667-106.667 106.667c-58.91 0-106.667-47.756-106.667-106.667s47.757-106.667 106.667-106.667zM384 682.667c0-58.91-47.756-106.667-106.667-106.667s-106.667 47.756-106.667 106.667c0 58.91 47.756 106.667 106.667 106.667s106.667-47.756 106.667-106.667zM746.667 106.667c58.91 0 106.667 47.757 106.667 106.667s-47.757 106.667-106.667 106.667c-58.91 0-106.667-47.757-106.667-106.667s47.757-106.667 106.667-106.667zM384 213.333c0-58.91-47.756-106.667-106.667-106.667s-106.667 47.757-106.667 106.667c0 58.91 47.756 106.667 106.667 106.667s106.667-47.757 106.667-106.667z" />
<glyph unicode="&#xe90c;" glyph-name="lightbulb" d="M682.667 280.96v-88.96c0-94.255-76.412-170.667-170.667-170.667-94.257 0-170.667 76.412-170.667 170.667v88.96c0 8.333-2.951 17.421-9.922 29.389-4.478 7.689-10.337 16.137-19.177 27.831l-2.973 3.878c-5.902 7.693-18.793 24.495-23.552 30.921-48.207 65.114-72.375 123.238-72.375 203.021 0 164.949 133.718 298.667 298.667 298.667s298.667-133.718 298.667-298.667c0-81.527-24.499-141.858-72.294-206.848-5.069-6.886-17.847-23.497-25.417-33.331v0c-2.961-3.853-5.124-6.665-5.717-7.454-9.66-12.847-15.659-21.956-19.558-29.867-3.533-7.159-5.013-12.689-5.013-17.54zM599.198 301.257c2.176 11.802 6.221 23.381 11.951 34.995 6.737 13.653 15.3 26.658 27.878 43.388 0.862 1.148 3.635 4.753 7.215 9.412l0.021 0.030c7.684 9.988 19.081 24.802 23.364 30.63 37.914 51.55 55.706 95.364 55.706 156.288 0 117.821-95.514 213.333-213.333 213.333s-213.333-95.513-213.333-213.333c0-58.816 17.351-100.548 55.625-152.243 4.107-5.547 15.703-20.668 21.972-28.843l0.009-0.009 4.036-5.269c10.72-14.182 18.305-25.118 24.84-36.339 10.178-17.472 16.935-34.505 19.863-52.169 26.59-15.957 55.33-23.795 86.989-23.795 31.74 0 60.553 7.881 87.198 23.923zM597.333 192v14.404c-26.987-9.579-55.497-14.404-85.333-14.404s-58.347 4.826-85.333 14.404v-14.404c0-47.13 38.204-85.333 85.333-85.333s85.333 38.204 85.333 85.333z" />
<glyph unicode="&#xe90d;" glyph-name="moon" d="M554.667 576c0 84.248 35.008 162.783 95.565 218.98l63.044 58.504-84.723 14.801c-24.247 4.236-48.939 6.381-73.886 6.381-235.642 0-426.667-191.025-426.667-426.667 0-235.639 191.025-426.667 426.667-426.667 144.444 0 276.663 72.371 355.268 190.31l47.642 71.479-85.743-5.227c-6.135-0.375-12.305-0.563-18.5-0.563-164.949 0-298.667 133.717-298.667 298.667zM554.667 106.667c-188.513 0-341.333 152.819-341.333 341.333 0 181.423 141.54 329.787 320.218 340.691-41.318-62.013-64.218-135.543-64.218-212.691 0-189.397 137.118-346.769 317.5-378.261-62.020-57.591-144.23-91.072-232.166-91.072z" />
<glyph unicode="&#xe90e;" glyph-name="nut" d="M896 226.193v443.407l-384 221.702-384-221.702v-443.407l384-221.7 384 221.7zM213.333 620.332l298.667 172.435 298.667-172.435v-344.872l-298.667-172.433-298.667 172.433v344.872zM512 234.662c-117.821 0-213.333 95.514-213.333 213.333s95.513 213.333 213.333 213.333c117.82 0 213.333-95.512 213.333-213.333s-95.514-213.333-213.333-213.333zM640 447.996c0-70.694-57.306-128-128-128s-128 57.306-128 128c0 70.69 57.306 128 128 128s128-57.309 128-128z" />
<glyph unicode="&#xe90f;" glyph-name="planet" d="M845.214 522.355c40.533 43.588 59.029 81.343 48.602 103.708-10.436 22.374-51.277 32.473-110.767 29.43 29.666-38.69 51.23-83.914 62.165-133.138zM701.193 732.148c-54.148 36.126-119.211 57.185-189.188 57.185-175.753 0-320.481-132.83-339.27-303.578-102.41-87.829-153.423-180.151-119.974-251.883 33.446-71.723 136.942-91.994 270.033-70.007 54.154-36.134 119.22-57.199 189.211-57.199 175.778 0 320.529 132.877 339.277 303.663 102.34 87.804 153.31 180.089 119.872 251.797-33.442 71.712-136.905 91.985-269.961 70.022zM343.536 255.241c-53.649 46.925-87.533 115.883-87.533 192.759 0 141.385 114.615 256 256.002 256 139.657 0 253.193-111.832 255.949-250.829-54.242-41.83-123.157-84.459-201.903-121.178-78.711-36.706-155.629-62.089-222.514-76.753zM458.308 197.641c46.699 15.181 95.061 34.283 143.808 57.015 48.777 22.746 94.524 47.531 136.192 73.566-42.974-81.033-128.196-136.222-226.304-136.222-18.419 0-36.382 1.946-53.696 5.641zM240.951 240.512c-59.537-3.059-100.414 7.040-110.853 29.423-10.435 22.379 8.090 60.169 48.675 103.791 10.929-49.254 32.501-94.507 62.178-133.214z" />
<glyph unicode="&#xe910;" glyph-name="pocket" d="M128 277.333c0-113.51 128-198.844 384-256 256 56.887 384 142.221 384 256 0 15.266 0.064 51.669 0.145 98.428v0.026c0.265 149.286 0.713 404.082-0.145 413.547 0 42.667-42.667 85.333-85.333 85.333h-597.333c-42.667 0-85.333-42.667-85.333-85.333v-512zM810.743 336.764c-0.051-31.659-0.077-49.668-0.077-59.43 0-57.655-91.042-119.991-298.624-168.474-207.601 48.7-298.709 111.070-298.709 168.474v341.333h597.811c-0.017-27.828-0.043-57.867-0.085-88.994-0.038-28.868-0.085-59.209-0.141-93.773l-0.175-99.136zM811.149 704h-597.815v85.333h597.333l0.35-7.711c0.060-0.665 0.115-30.588 0.132-77.623zM512 490.667c-23.565 0-42.667 19.102-42.667 42.667s19.102 42.667 42.667 42.667c23.565 0 42.667-19.103 42.667-42.667s-19.102-42.667-42.667-42.667z" />
<glyph unicode="&#xe911;" glyph-name="rocket" d="M298.667 618.667c0 134.659 81.645 298.667 213.333 298.667 131.686 0 213.333-164.007 213.333-298.667v-149.333l170.667-128v-234.667h-170.667c0-47.13-38.204-85.333-85.333-85.333h-85.333v-42.667h-85.333v42.667h-85.333c-47.128 0-85.333 38.204-85.333 85.333h-170.667v234.667l170.667 128v149.333zM554.667 106.667h85.333v512c0 93.558-59.627 213.333-128 213.333s-128-119.776-128-213.333v-512h85.333v256h85.333v-256zM213.333 298.667v-106.667h85.333v170.667l-85.333-64zM725.333 192h85.333v106.667l-85.333 64v-170.667zM512 490.667c47.13 0 85.333 38.204 85.333 85.333 0 47.128-38.204 85.333-85.333 85.333s-85.333-38.205-85.333-85.333c0-47.13 38.204-85.333 85.333-85.333z" />
<glyph unicode="&#xe912;" glyph-name="sun" d="M252.88 188.877l71.87-192.943 187.25 85.615 187.251-85.615 71.872 192.943 192.943 71.872-85.615 187.251 85.615 187.25-192.943 71.87-71.872 192.943-187.251-85.611-187.25 85.611-71.87-192.943-192.943-71.87 85.611-187.25-85.611-187.251 192.943-71.872zM651.307 111.684l-139.307 63.693-139.305-63.693-53.468 143.539-143.54 53.47 63.691 139.307-63.691 139.305 143.54 53.468 53.468 143.54 139.305-63.691 139.307 63.691 53.47-143.54 143.539-53.468-63.693-139.305 63.693-139.307-143.539-53.47-53.47-143.539zM512 234.667c-117.82 0-213.332 95.514-213.332 213.333s95.513 213.332 213.332 213.332c117.82 0 213.333-95.513 213.333-213.332s-95.514-213.333-213.333-213.333zM640 448c0-70.694-57.306-128-128-128-70.69 0-127.999 57.306-127.999 128 0 70.69 57.309 127.999 127.999 127.999 70.694 0 128-57.309 128-127.999z" />
<glyph unicode="&#xe913;" glyph-name="toy-horse" d="M180.737 543.402l74.625 149.25c89.045-25.893 128.636-65.129 128.636-116.655 0-66.232 61.77-128.001 128.002-128.001h42.667c84.762 0 103.556-18.509 129.31-101.811 17.493-56.589 20.57-65.728 32.666-91.887 11.209-24.23 24.525-46.315 40.815-66.726-12.565-8.789-26.039-17.161-40.23-24.947-27.106 91.311-118.972 157.372-226.56 157.372-96.837 0-146.441-40.772-204.524-145.335-9.583 5.943-18.753 12.139-27.436 18.539l86.024 258.074-69.651 139.301-94.342-47.171zM252.599 444.723l-61.275-183.825c-13.226 20.028-20.659 40.154-20.659 59.098h-85.333c0-148.254 221.122-298.667 426.668-298.667 205.542 0 426.667 150.413 426.667 298.667h-85.333c0-23.983-11.913-49.86-32.41-75.034-10.441 13.751-19.191 28.646-26.829 45.158-9.813 21.214-12.454 29.069-28.591 81.267-7.134 23.074-14.724 43.392-23.326 61.133 57.929 25.946 113.877 19.268 172.821-20.023l47.334 71.002c-90.078 60.049-183.697 65.827-274.458 17.331-31.548 22.43-73.617 32.499-133.21 32.499h-42.667c-19.106 0-42.667 23.565-42.667 42.668 0 110.276-87.839 180.546-247.634 212.505l-51.034 10.207v-84.64l-94.582-189.162 86.157-86.157 74.677 37.338 15.682-31.364zM362.584 136.572c41.905 74.513 72.552 98.091 128.082 98.091 74.765 0 135.343-46.882 147.217-106.564-40.695-13.444-83.742-21.436-125.884-21.436-50.364 0-102.022 11.413-149.416 29.909z" />
<glyph unicode="&#xe914;" glyph-name="alarm" d="M264.835 844.494l-60.34 60.34-149.333-149.333 60.34-60.34 149.333 149.333zM819.503 904.833l149.333-149.333-60.343-60.34-149.333 149.333 60.343 60.34zM512 21.329c-235.643 0-426.669 191.027-426.669 426.667 0 235.642 191.025 426.668 426.669 426.668 235.639 0 426.667-191.025 426.667-426.668 0-235.639-191.027-426.667-426.667-426.667zM512 106.662c188.51 0 341.333 152.819 341.333 341.333s-152.823 341.334-341.333 341.334c-188.515 0-341.335-152.82-341.335-341.334s152.82-341.333 341.335-341.333zM725.333 490.662h-170.667v213.334h-85.333v-298.668h256v85.333z" />
<glyph unicode="&#xe915;" glyph-name="alarm-checked" d="M204.495 904.833l60.34-60.34-149.333-149.333-60.34 60.34 149.333 149.333zM968.836 755.5l-149.333 149.333-60.343-60.34 149.333-149.333 60.343 60.34zM512 21.329c-235.643 0-426.669 191.027-426.669 426.667 0 235.642 191.025 426.668 426.669 426.668 235.639 0 426.667-191.025 426.667-426.668 0-235.639-191.027-426.667-426.667-426.667zM512 106.662c188.51 0 341.333 152.819 341.333 341.333s-152.823 341.334-341.333 341.334c-188.515 0-341.335-152.82-341.335-341.334s152.82-341.333 341.335-341.333zM652.493 606.167l-183.159-183.165-97.832 97.83-60.34-60.339 158.172-158.17 243.503 243.504-60.343 60.34z" />
<glyph unicode="&#xe916;" glyph-name="alarm-minus" d="M204.495 904.833l60.34-60.34-149.333-149.333-60.34 60.34 149.333 149.333zM968.836 755.5l-149.333 149.333-60.343-60.34 149.333-149.333 60.343 60.34zM512 21.329c-235.643 0-426.669 191.027-426.669 426.667 0 235.642 191.025 426.668 426.669 426.668 235.639 0 426.667-191.025 426.667-426.668 0-235.639-191.027-426.667-426.667-426.667zM512 106.662c188.51 0 341.333 152.819 341.333 341.333s-152.823 341.334-341.333 341.334c-188.515 0-341.335-152.82-341.335-341.334s152.82-341.333 341.335-341.333zM341.331 490.662v-85.333h341.335v85.333h-341.335z" />
<glyph unicode="&#xe917;" glyph-name="alarm-no" d="M99.658 799.997l-44.497 44.497 60.34 60.34 853.335-853.335-60.343-60.339-126.468 126.473c-73.553-60.19-167.573-96.303-270.025-96.303-235.643 0-426.669 191.027-426.669 426.667 0 102.455 36.112 196.475 96.301 270.027l-21.635 21.634-44.497-44.497-60.34 60.34 44.497 44.497zM721.306 178.351l-478.955 478.953c-44.931-57.8-71.686-130.431-71.686-209.309 0-188.514 152.82-341.333 341.335-341.333 78.878 0 151.505 26.756 209.306 71.689zM853.333 447.996c0 188.514-152.823 341.334-341.333 341.334-47.629 0-92.975-9.754-134.156-27.373l-64 64c59.211 31.106 126.625 48.707 198.156 48.707 235.639 0 426.667-191.025 426.667-426.668 0-71.526-17.604-138.94-48.708-198.153l-64 64c17.617 41.182 27.375 86.528 27.375 134.153zM819.503 904.833l-60.343-60.34 149.333-149.333 60.343 60.34-149.333 149.333z" />
<glyph unicode="&#xe918;" glyph-name="alarm-plus" d="M264.835 844.494l-60.34 60.34-149.333-149.333 60.34-60.34 149.333 149.333zM819.503 904.833l149.333-149.333-60.343-60.34-149.333 149.333 60.343 60.34zM85.331 447.996c0-235.639 191.025-426.667 426.669-426.667 235.639 0 426.667 191.027 426.667 426.667 0 235.642-191.027 426.668-426.667 426.668-235.643 0-426.669-191.025-426.669-426.668zM853.333 447.996c0-188.514-152.823-341.333-341.333-341.333-188.515 0-341.335 152.819-341.335 341.333s152.82 341.334 341.335 341.334c188.51 0 341.333-152.82 341.333-341.334zM469.333 405.329h-128.002v85.333h128.002v128.001h85.333v-128.001h128v-85.333h-128v-128h-85.333v128z" />
<glyph unicode="&#xe919;" glyph-name="alarm-snooze" d="M204.495 904.833l60.34-60.34-149.333-149.333-60.34 60.34 149.333 149.333zM968.836 755.5l-149.333 149.333-60.343-60.34 149.333-149.333 60.343 60.34zM512 21.329c-235.643 0-426.669 191.027-426.669 426.667 0 235.642 191.025 426.668 426.669 426.668 235.639 0 426.667-191.025 426.667-426.668 0-235.639-191.027-426.667-426.667-426.667zM512 106.662c188.51 0 341.333 152.819 341.333 341.333s-152.823 341.334-341.333 341.334c-188.515 0-341.335-152.82-341.335-341.334s152.82-341.333 341.335-341.333zM383.998 618.663v-85.334h133.609l-170.665-256h293.059v85.333h-133.611l170.667 256.001h-293.058z" />
<glyph unicode="&#xe91a;" glyph-name="calendar" d="M256 704v42.667h-85.333v-128h682.667v128h-85.333v-42.667h-85.333v42.667h-341.333v-42.667h-85.333zM170.667 533.333v-426.667h682.667v426.667h-682.667zM341.333 832h341.333v42.667h85.333v-42.667h85.333c47.13 0 85.333-38.205 85.333-85.333v-640c0-47.13-38.204-85.333-85.333-85.333h-682.667c-47.128 0-85.333 38.204-85.333 85.333v640c0 47.128 38.205 85.333 85.333 85.333h85.333v42.667h85.333v-42.667z" />
<glyph unicode="&#xe91b;" glyph-name="calendar-checked" d="M341.333 704v42.667h341.333v-42.667h85.333v42.667h85.333v-128h-682.667v128h85.333v-42.667h85.333zM170.667 106.667v426.667h682.667v-426.667h-682.667zM682.667 832h-341.333v42.667h-85.333v-42.667h-85.333c-47.128 0-85.333-38.205-85.333-85.333v-640c0-47.13 38.205-85.333 85.333-85.333h682.667c47.13 0 85.333 38.204 85.333 85.333v640c0 47.128-38.204 85.333-85.333 85.333h-85.333v42.667h-85.333v-42.667zM652.497 478.17l60.339-60.339-243.503-243.503-158.17 158.17 60.34 60.339 97.83-97.83 183.164 183.164z" />
<glyph unicode="&#xe91c;" glyph-name="calendar-create" d="M256 704v42.667h-85.333v-128h682.667v128h-85.333v-42.667h-85.333v42.667h-341.333v-42.667h-85.333zM170.667 533.333v-426.667h426.667v-85.333h-426.667c-47.128 0-85.333 38.204-85.333 85.333v640c0 47.128 38.205 85.333 85.333 85.333h85.333v42.667h85.333v-42.667h341.333v42.667h85.333v-42.667h85.333c47.13 0 85.333-38.205 85.333-85.333v-384h-85.333v170.667h-682.667zM896 149.333h85.333v-85.333h-85.333v-85.333h-85.333v85.333h-85.333v85.333h85.333v85.333h85.333v-85.333z" />
<glyph unicode="&#xe91d;" glyph-name="calendar-dates" d="M341.333 704v42.667h341.333v-42.667h85.333v42.667h85.333v-128h-682.667v128h85.333v-42.667h85.333zM853.333 533.333v-426.667h-682.667v426.667h682.667zM682.667 832h-341.333v42.667h-85.333v-42.667h-85.333c-47.128 0-85.333-38.205-85.333-85.333v-640c0-47.13 38.205-85.333 85.333-85.333h682.667c47.13 0 85.333 38.204 85.333 85.333v640c0 47.128-38.204 85.333-85.333 85.333h-85.333v42.667h-85.333v-42.667zM298.667 362.667h85.333v85.333h-85.333v-85.333zM469.333 362.667v85.333h85.333v-85.333h-85.333zM640 362.667h85.333v85.333h-85.333v-85.333zM298.667 277.333h85.333v-85.333h-85.333v85.333zM554.667 192v85.333h-85.333v-85.333h85.333z" />
<glyph unicode="&#xe91e;" glyph-name="calendar-delete" d="M341.333 704v42.667h341.333v-42.667h85.333v42.667h85.333v-128h-682.667v128h85.333v-42.667h85.333zM170.667 106.667v426.667h682.667v-426.667h-682.667zM682.667 832h-341.333v42.667h-85.333v-42.667h-85.333c-47.128 0-85.333-38.205-85.333-85.333v-640c0-47.13 38.205-85.333 85.333-85.333h682.667c47.13 0 85.333 38.204 85.333 85.333v640c0 47.128-38.204 85.333-85.333 85.333h-85.333v42.667h-85.333v-42.667zM609.83 478.17l60.339-60.339-97.83-97.83 97.83-97.83-60.339-60.339-97.83 97.83-97.83-97.83-60.34 60.339 97.831 97.83-97.831 97.83 60.34 60.339 97.83-97.83 97.83 97.83z" />
<glyph unicode="&#xe91f;" glyph-name="calendar-minus" d="M341.333 704v42.667h341.333v-42.667h85.333v42.667h85.333v-128h-682.667v128h85.333v-42.667h85.333zM170.667 106.667v426.667h682.667v-426.667h-682.667zM682.667 832h-341.333v42.667h-85.333v-42.667h-85.333c-47.128 0-85.333-38.205-85.333-85.333v-640c0-47.13 38.205-85.333 85.333-85.333h682.667c47.13 0 85.333 38.204 85.333 85.333v640c0 47.128-38.204 85.333-85.333 85.333h-85.333v42.667h-85.333v-42.667zM341.333 362.667h341.333v-85.333h-341.333v85.333z" />
<glyph unicode="&#xe920;" glyph-name="calendar-plus" d="M256 704v42.667h-85.333v-128h682.667v128h-85.333v-42.667h-85.333v42.667h-341.333v-42.667h-85.333zM170.667 533.333v-426.667h682.667v426.667h-682.667zM341.333 832h341.333v42.667h85.333v-42.667h85.333c47.13 0 85.333-38.205 85.333-85.333v-640c0-47.13-38.204-85.333-85.333-85.333h-682.667c-47.128 0-85.333 38.204-85.333 85.333v640c0 47.128 38.205 85.333 85.333 85.333h85.333v42.667h85.333v-42.667zM341.333 277.333h128v-128h85.333v128h128v85.333h-128v128h-85.333v-128h-128v-85.333z" />
<glyph unicode="&#xe921;" glyph-name="stopwatch" d="M469.333 786.99v45.010h-42.667v85.333h170.667v-85.333h-42.667v-45.010c74.048-8.186 141.751-37.426 196.988-81.602l71.441 71.757 60.476-60.207-71.569-71.883c52.565-65.698 83.998-149.038 83.998-239.722 0-212.079-171.921-384-384-384-212.077 0-384 171.921-384 384 0 197.655 149.335 360.432 341.333 381.656zM512 106.667c164.949 0 298.667 133.717 298.667 298.667s-133.717 298.667-298.667 298.667c-164.949 0-298.667-133.718-298.667-298.667s133.718-298.667 298.667-298.667zM554.667 362.667v256h-85.333v-256h85.333z" />
<glyph unicode="&#xe922;" glyph-name="time" d="M512-21.333c-259.206 0-469.333 210.129-469.333 469.333 0 259.206 210.128 469.333 469.333 469.333 259.204 0 469.333-210.128 469.333-469.333 0-259.204-210.129-469.333-469.333-469.333zM512 64c212.079 0 384 171.921 384 384 0 212.077-171.921 384-384 384-212.077 0-384-171.923-384-384 0-212.079 171.923-384 384-384zM725.333 490.667h-170.667v213.333h-85.333v-298.667h256v85.333z" />
<glyph unicode="&#xe923;" glyph-name="time-history" d="M341.333 704h-123.132c82.371 94.235 172.592 128 293.799 128 212.079 0 384-171.923 384-384 0-212.079-171.921-384-384-384-212.077 0-384 171.921-384 384h-85.333c0-259.204 210.128-469.333 469.333-469.333 259.204 0 469.333 210.129 469.333 469.333 0 259.206-210.129 469.333-469.333 469.333-137.104 0-245.885-38.851-341.333-138.942v96.65h-85.333v-256.375h256v85.333zM725.333 490.667h-170.667v213.333h-85.333v-298.667h256v85.333z" />
<glyph unicode="&#xe924;" glyph-name="timer" d="M554.667 661.333v168.323c192-21.224 341.333-184.001 341.333-381.656 0-212.079-171.921-384-384-384-212.077 0-384 171.921-384 384 0 103.519 41.095 200.419 112.981 272.038l-60.227 60.452c-87.799-87.472-138.087-206.051-138.087-332.49 0-259.204 210.128-469.333 469.333-469.333 259.204 0 469.333 210.129 469.333 469.333 0 259.206-210.129 469.333-469.333 469.333h-42.667v-256h85.333zM512 533.333c-7.646 0-15.053-1.007-22.101-2.889l-161.062 161.059-60.34-60.34 161.059-161.062c-1.882-7.049-2.889-14.455-2.889-22.101 0-47.13 38.204-85.333 85.333-85.333s85.333 38.204 85.333 85.333c0 47.13-38.204 85.333-85.333 85.333z" />
<glyph unicode="&#xe925;" glyph-name="watch" d="M640 917.333h-256c-19.050 0-35.792-12.628-41.025-30.945l-50.595-177.082c-74.421-62.614-121.713-156.437-121.713-261.306s47.293-198.694 121.713-261.308l50.595-177.079c5.233-18.317 21.975-30.946 41.025-30.946h256c19.051 0 35.793 12.629 41.024 30.946l50.594 177.079c64.171 53.986 108.169 131.174 119.074 218.641h45.308v85.333h-45.308c-10.906 87.465-54.903 164.653-119.074 218.639l-50.594 177.082c-5.231 18.317-21.973 30.945-41.024 30.945zM512 789.333c39.804 0 78.012-6.813 113.532-19.336l-17.715 62.002h-191.633l-17.715-62.002c35.52 12.523 73.728 19.336 113.531 19.336zM416.183 64l-17.715 62.003c35.52-12.523 73.728-19.337 113.531-19.337s78.012 6.814 113.532 19.337l-17.715-62.003h-191.633zM768 448c0-141.385-114.615-256-256-256s-256 114.615-256 256c0 141.385 114.615 256 256 256s256-114.615 256-256zM554.667 490.667h85.333v-85.333h-170.667v213.333h85.333v-128z" />
<glyph unicode="&#xe926;" glyph-name="at-sign" d="M639.974 661.333h85.333v-213.333c0-105.425 8.085-128 42.667-128 55.65 0 85.333 26.317 85.333 128 0 225.679-113.19 341.333-341.325 341.333-147.801-0.019-278.797-95.158-324.536-235.702-45.739-140.541 4.172-294.56 123.65-381.561s281.377-87.223 401.096-0.55l50.044-69.12c-149.649-108.343-352.023-108.066-501.371 0.687-149.348 108.757-211.736 301.274-154.563 476.953s220.919 294.604 405.672 294.627c275.686 0 426.667-154.266 426.667-426.667 0-151.249-70.020-213.333-170.667-213.333-57.335 0-90.15 18.487-108.164 59.529-38.345-36.864-90.445-59.529-147.836-59.529-117.82 0-213.332 95.514-213.332 213.333s95.512 213.333 213.332 213.333c48.026 0 92.348-15.869 128-42.651v42.651zM639.974 448c0-70.694-57.306-128-128-128-70.69 0-127.999 57.306-127.999 128s57.309 128 127.999 128c70.694 0 128-57.306 128-128z" />
<glyph unicode="&#xe927;" glyph-name="behance" d="M85.333 746.667v-597.333h256c94.255 0 170.667 76.412 170.667 170.667 0 62.050-33.114 116.369-82.637 146.24 24.943 29.675 39.97 67.962 39.97 109.76 0 94.257-76.41 170.667-170.667 170.667h-213.333zM170.667 234.667v170.667h170.667c47.128 0 85.333-38.204 85.333-85.333s-38.205-85.333-85.333-85.333h-170.667zM896 704v-85.333h-298.667v85.333h298.667zM752.546 234.667c44.395 0 71.676 9.079 86.238 22.741 7.676 7.198 10.876 15.206 10.876 19.925h85.333c0-69.427-62.434-128-182.447-128-118.75 0-197.879 76.979-197.879 213.333 0 126.554 67.435 213.333 192 213.333s192-86.78 192-213.333v-42.667h-294.886c11.584-58.756 49.446-85.333 108.766-85.333zM849.69 405.333c-10.594 55.885-44.429 85.333-103.023 85.333s-92.429-29.449-103.023-85.333h206.046zM170.667 490.667v170.667h128c47.128 0 85.333-38.205 85.333-85.333 0-47.13-38.205-85.333-85.333-85.333h-128z" />
<glyph unicode="&#xe928;" glyph-name="command" d="M597.333 618.667h-170.667v85.333c0 94.257-76.41 170.667-170.667 170.667s-170.667-76.41-170.667-170.667c0-94.257 76.41-170.667 170.667-170.667h85.333v-170.667h-85.333c-94.257 0-170.667-76.412-170.667-170.667s76.41-170.667 170.667-170.667c94.257 0 170.667 76.412 170.667 170.667v85.333h170.667v-85.333c0-94.255 76.412-170.667 170.667-170.667s170.667 76.412 170.667 170.667c0 94.255-76.412 170.667-170.667 170.667h-85.333v170.667h85.333c94.255 0 170.667 76.41 170.667 170.667s-76.412 170.667-170.667 170.667c-94.255 0-170.667-76.41-170.667-170.667v-85.333zM426.667 362.667v170.667h170.667v-170.667h-170.667zM682.667 277.333v-85.333c0-47.13 38.204-85.333 85.333-85.333s85.333 38.204 85.333 85.333c0 47.13-38.204 85.333-85.333 85.333h-85.333zM256 277.333h85.333v-85.333c0-47.13-38.205-85.333-85.333-85.333s-85.333 38.204-85.333 85.333c0 47.13 38.205 85.333 85.333 85.333zM682.667 618.667h85.333c47.13 0 85.333 38.205 85.333 85.333s-38.204 85.333-85.333 85.333c-47.13 0-85.333-38.205-85.333-85.333v-85.333zM341.333 704v-85.333h-85.333c-47.128 0-85.333 38.205-85.333 85.333s38.205 85.333 85.333 85.333c47.128 0 85.333-38.205 85.333-85.333z" />
<glyph unicode="&#xe929;" glyph-name="dribbble" d="M512-21.333c-259.206 0-469.333 210.129-469.333 469.333 0 259.206 210.128 469.333 469.333 469.333 259.204 0 469.333-210.128 469.333-469.333 0-259.204-210.129-469.333-469.333-469.333zM890.359 382.046c-82.496 19.166-159.625 24.098-231.637 14.682 35.883-88.542 62.003-175.172 78.327-259.904 79.39 57.515 135.902 144.67 153.31 245.222zM658.253 92.834c-15.317 92.173-43.375 187.341-84.22 285.483-114.662-35.469-215.017-111.94-302.236-229.931 65.772-52.8 149.298-84.386 240.203-84.386 51.785 0 101.175 10.253 146.253 28.834zM211.002 209.527c94.135 123.793 203.8 206.332 327.988 247.181-8.009 16.772-16.38 33.634-25.114 50.577-22.054-5.892-44.915-10.978-68.553-15.3-95.176-17.399-177.673-20.787-311.48-18.876-1.756 0.026-3.431 0.051-5.032 0.073-0.539-8.324-0.812-16.721-0.812-25.182 0-90.108 31.037-172.966 83.002-238.473zM144.081 558.314c30.447 101.69 101.902 185.666 195.166 232.725 49.783-70.074 93.961-138.863 132.544-206.362-13.564-3.22-27.503-6.133-41.813-8.749-86.085-15.738-162.672-19.171-285.897-17.615zM422.209 821.445c49.944-71.491 94.33-141.876 133.14-211.159 81.779 31.625 145.259 78.626 188.514 143.837-64.427 48.875-144.759 77.877-231.863 77.877-30.921 0-60.988-3.654-89.791-10.555zM806.447 694.505c51.831-61.849 84.54-140.271 89.024-226.165-96.516 20.8-187.281 23.872-272.021 9.335-8.781 18.846-17.993 37.773-27.631 56.786 87.932 35.583 159.125 87.839 210.628 160.044z" />
<glyph unicode="&#xe92a;" glyph-name="facebook" d="M170.667 874.667h682.667c47.13 0 85.333-38.205 85.333-85.333v-682.667c0-47.13-38.204-85.333-85.333-85.333h-682.667c-47.128 0-85.333 38.204-85.333 85.333v682.667c0 47.128 38.205 85.333 85.333 85.333zM170.667 789.333v-682.667h682.667v682.667h-682.667zM475.012 447.812h79.654v-255.812h85.333v255.812h84.582v85.333h-84.582v42.854c0 23.564 19.102 42.667 42.667 42.667h42.667v85.333h-42.667c-70.694 0-128-57.308-128-128v-42.854h-79.654v-85.333z" />
<glyph unicode="&#xe92b;" glyph-name="github" d="M427.401 106.513c0.222-5.244-0.341-10.359-1.446-15.535-1.939-9.097-5.684-18.722-10.986-27.618-15.071-25.28-40.673-42.15-73.635-42.15-77.649 0-108.124 38.093-146.282 133.487-25.842 64.606-38.034 79.846-67.052 79.846v85.333c77.649 0 108.124-38.097 146.282-133.487 25.842-64.61 38.034-79.846 67.052-79.846 0 12.378-0.169 23.347-0.527 38.195-0.836 34.807-0.932 41.916 0.586 51.221 0.607 20.314 5.851 34.726 16.367 49.028-95.224 20.732-159.449 63.539-196.311 132.979l-13.808 32.474c-13.452 38.66-19.641 82.466-19.641 133.055 0 58.264 17.764 110.359 50.945 153.905-10.351 41.393-8.933 91.966 13.922 149.080l7.468 18.662 19.146 6.124c2.563 0.82 5.679 1.56 9.341 2.135 37.281 5.851 90.33-8.109 159.683-52.532 40.885 9.477 83.936 14.262 127.285 14.262 38.733 0 77.257-3.905 114.039-11.604 67.477 42.254 119.066 55.507 155.345 49.867 3.618-0.563 6.703-1.289 9.246-2.095l19.264-6.109 7.479-18.776c19.994-50.208 23.424-96.478 16.149-136.966 38.144-45.769 58.688-102.037 58.688-165.954 0-53.887-3.861-94.403-14.959-133.823l-11.712-32.145c-30.66-69.363-98.278-112.653-202.556-133.269 10.842-15.010 15.893-30.242 15.893-52.382v-42.667c0-20.676 0-21.316-0.047-42.667 0.098-1.536 0.226-2.287 0.363-2.752-0.034-0.013-0.316-82.581-0.316-82.581-36.343 0-63.364 17.724-76.655 45.679-6.891 14.498-8.951 28.339-8.678 40.26v84.727c0 3.575-0.124 3.785-8.836 12.497-23.287 23.287-33.83 40.858-33.83 72.836v38.596l38.404 3.857c114.313 11.477 176.486 43.226 197.103 89.604l9.634 26.334c7.663 27.537 10.859 61.069 10.859 107.894 0 49.753-17.37 90.853-50.219 123.689l-18.057 18.049 7.369 24.443c6.549 21.715 8.102 47.41 1.178 76.717-1.152-0.291-2.347-0.609-3.588-0.955-22.848-6.36-51.371-20.008-85.743-42.983l-15.676-10.479-18.3 4.538c-35.401 8.777-73.438 13.284-111.842 13.284-42.705 0-84.919-5.434-123.919-16.065l-19.031-5.188-16.281 11.138c-35.549 24.32-65.082 38.782-88.764 45.538-1.691 0.483-3.302 0.914-4.832 1.299-8.262-33.92-4.994-61.787 3.374-82.698l10.033-25.073-18.368-19.798c-29.269-31.547-44.667-69.937-44.667-115.456 0-41.676 4.879-76.21 13.819-102.22l11.165-26.432c27.911-52.373 87.195-83.883 192.897-95.211l38.118-4.087v-38.336c0-31.979-10.543-49.549-33.83-72.836-8.713-8.713-8.836-8.922-8.836-12.497l-0.736-7.889c-0.486-2.586-0.486-9.267 0.185-37.197 0.308-12.847 0.484-23.014 0.535-33.638 0.511-2.202 0.588-3.618 0.75-6.639z" />
<glyph unicode="&#xe92c;" glyph-name="gitlab" d="M729.839 808.419l-116.207-232.414h-203.26l-116.207 232.414c-17.28 34.559-67.927 30.188-79.029-6.821l-128-426.665c-5.062-16.875 0.767-35.127 14.672-45.939l384-298.667c15.407-11.985 36.983-11.985 52.39 0l384 298.667c13.905 10.812 19.733 29.065 14.673 45.939l-128 426.665c-11.102 37.009-61.751 41.38-79.031 6.821zM678.165 514.257l79.885 159.771 88.687-295.622-334.733-260.348-334.736 260.348 88.687 295.622 79.886-159.771c7.227-14.455 22.001-23.586 38.162-23.586h256.002c16.158 0 30.933 9.131 38.161 23.586z" />
<glyph unicode="&#xe92d;" glyph-name="google" d="M554.667 405.333v85.333h384v-42.667c0-235.639-191.027-426.667-426.667-426.667-235.642 0-426.667 191.027-426.667 426.667 0 235.642 191.025 426.667 426.667 426.667 131.409 0 253.069-59.84 333.513-160.537l-66.667-53.263c-64.422 80.639-161.66 128.466-266.846 128.466-188.513 0-341.333-152.82-341.333-341.333s152.82-341.333 341.333-341.333c174.063 0 317.696 130.291 338.692 298.667h-296.026z" />
<glyph unicode="&#xe92e;" glyph-name="hash" d="M469.333 874.667h-85.333l-25.6-256h-179.2l-8.533-85.333h179.2l-17.067-170.667h-196.267l-8.533-85.333h196.267l-25.6-256h85.333l25.6 256h170.667l-25.6-256h85.333l25.6 256h179.2l8.533 85.333h-179.2l17.067 170.667h196.267l8.533 85.333h-196.267l25.6 256h-85.333l-25.6-256h-170.667l25.6 256zM435.2 533.333l-17.067-170.667h170.667l17.067 170.667h-170.667z" />
<glyph unicode="&#xe92f;" glyph-name="instagram" d="M682.667 874.667h-341.333c-141.385 0-256-114.615-256-256v-341.333c0-141.385 114.615-256 256-256h341.333c141.385 0 256 114.615 256 256v341.333c0 141.385-114.615 256-256 256zM170.667 618.667c0 94.257 76.41 170.667 170.667 170.667h341.333c94.255 0 170.667-76.41 170.667-170.667v-341.333c0-94.255-76.412-170.667-170.667-170.667h-341.333c-94.257 0-170.667 76.412-170.667 170.667v341.333zM512 234.667c-117.821 0-213.333 95.514-213.333 213.333s95.513 213.333 213.333 213.333c117.82 0 213.333-95.513 213.333-213.333s-95.514-213.333-213.333-213.333zM512 320c70.694 0 128 57.306 128 128s-57.306 128-128 128c-70.694 0-128-57.306-128-128s57.306-128 128-128zM768 661.333c0-23.564-19.102-42.667-42.667-42.667s-42.667 19.103-42.667 42.667c0 23.564 19.102 42.667 42.667 42.667s42.667-19.103 42.667-42.667z" />
<glyph unicode="&#xe930;" glyph-name="linkedin" d="M170.667 874.667h682.667c47.13 0 85.333-38.205 85.333-85.333v-682.667c0-47.13-38.204-85.333-85.333-85.333h-682.667c-47.128 0-85.333 38.204-85.333 85.333v682.667c0 47.128 38.205 85.333 85.333 85.333zM170.667 789.333v-682.667h682.667v682.667h-682.667zM554.667 576c-22.089 0-45.427-6.752-66.044-19.292l-19.29 19.292h-42.667v-298.667h85.333v170.667c0 24.563 25.344 42.667 42.667 42.667h42.667c17.323 0 42.667-18.103 42.667-42.667v-170.667h85.333v170.667c0 79.053-68.523 128-128 128h-42.667zM341.333 618.667c23.564 0 42.667 19.103 42.667 42.667s-19.103 42.667-42.667 42.667c-23.564 0-42.667-19.103-42.667-42.667s19.103-42.667 42.667-42.667zM298.667 576v-298.667h85.333v298.667h-85.333z" />
<glyph unicode="&#xe931;" glyph-name="peace" d="M512 917.333c259.204 0 469.333-210.128 469.333-469.333 0-259.204-210.129-469.333-469.333-469.333-259.206 0-469.333 210.129-469.333 469.333 0 259.206 210.128 469.333 469.333 469.333zM469.333 829.656c-191.998-21.224-341.333-184.001-341.333-381.656 0-90.667 31.423-173.995 83.972-239.689l257.361 257.361v363.984zM554.667 829.656v-363.984l257.361-257.361c52.548 65.694 83.972 149.022 83.972 239.689 0 197.655-149.333 360.432-341.333 381.656zM751.689 147.972l-197.022 197.022v-278.652c74.065 8.188 141.777 37.44 197.022 81.63zM469.333 66.342v278.652l-197.021-197.022c55.244-44.19 122.959-73.442 197.021-81.63z" />
<glyph unicode="&#xe932;" glyph-name="twitter" d="M901.099 767.647l60.365-7.049-27.136-54.379c-13.231-26.519-26.475-53.037-39.735-79.555-1.57-5.617-4.335-10.54-8.418-16.951-1.711-2.679-7.543-11.2-7.817-11.608-1.54-2.31-2.679-4.132-3.499-5.591v-101.91c0-260.779-252.373-426.492-490.708-426.492-48.769 0-85.823 2.334-128.251 11.593-69.824 15.241-121.787 45.525-145.565 98.462l-24.48 54.498 59.494 5.474c53.821 4.949 100.484 15.202 136.32 28.932-98.382 15.821-153.514 59.029-153.514 140.177v42.667h42.667c9.374 0 17.827 0.759 25.384 2.159-73.836 44.147-110.819 114.966-110.819 213.196-0.008 4.186-0.008 4.187-0.033 8.663-0.277 49.512 2.382 75.968 15.936 109.734 8.687 21.64 21.243 41.673 38.142 60.029l32.197 34.973 31.303-35.775c103.158-117.894 205.132-189.418 309.249-198.069 0.444 108.786 82.658 191.113 192.004 191.113 50.978 0 97.216-19.349 133.555-54.238 19.887-4.087 41.011-7.439 63.36-10.050zM806.767 697.087l-13.077 2.962-9.033 9.912c-21.841 23.967-49.259 36.64-80.474 36.64-62.417 0-106.675-44.475-106.675-106.667 0-10.164-0.26-16.55-1.527-24.944-5.052-33.494-23.838-60.389-62.473-60.389-127.916 0-243.317 68.527-355.849 185.568-5.801-17.635-7.165-35.763-6.975-69.76 0.026-4.547 0.026-4.547 0.035-9.141 0-87.382 35.401-135.18 119.221-161.821l29.742-9.455v-31.206c0-37.845-35.854-73.468-88.314-89.425 24.048-18.249 73.23-28.092 152.798-28.092h42.667v-42.667c0-61.133-70.241-108.996-176.348-133.99 34.604-10.598 80.679-15.168 133.666-15.168 196.884 0 405.374 136.9 405.374 341.158v106.666c0 12.535 3.635 23.415 9.668 34.728 2.364 4.423 4.962 8.64 8.166 13.449 0.606 0.905 2.846 4.186 4.625 6.809l3.379 6.763c5.483 10.959 10.957 21.917 16.431 32.876-8.508 1.612-16.849 3.343-25.028 5.195z" />
<glyph unicode="&#xe933;" glyph-name="youtube" d="M939.721 186.53c29.158 49.967 41.613 130.53 41.613 261.589 0 130.535-12.339 210.633-41.805 261.938-29.53 53.277-64.55 70.187-134.054 74.246-47.45 3.216-165.376 5.030-293.359 5.030-128.26 0-246.24-1.814-294.046-5.056-69.115-4.044-104.145-20.991-133.934-74.415-29.037-51.127-41.469-131.617-41.469-262.221 0-129.86 12.492-210.756 41.724-261.717 29.402-52.736 63.873-69.478 133.576-74.372 50.097-2.935 174.755-4.885 294.148-4.885 119.121 0 243.721 1.954 293.359 4.851 70.345 4.928 104.811 21.696 134.246 75.012zM800.102 699.14c43.477-2.541 51.537-6.449 65.318-31.391 20.062-34.746 30.579-102.744 30.579-220.107 0-116.476-10.573-184.849-30.485-218.991-13.828-25.020-21.833-28.915-65.51-31.974-46.985-2.743-170.372-4.676-287.889-4.676-117.784 0-241.236 1.933-288.669 4.706-43.137 3.034-51.259 6.976-64.781 31.228-20.048 34.957-30.666 103.714-30.666 220.186 0 116.404 10.562 184.781 30.502 219.895 13.732 24.625 21.911 28.582 64.947 31.101 45.568 3.088 162.438 4.885 288.666 4.885 125.952 0 242.769-1.797 287.987-4.86zM426.667 576l213.333-128-213.333-128v256z" />
<glyph unicode="&#xe934;" glyph-name="uniE934" d="M981.333 448c0 259.206-210.129 469.333-469.333 469.333-259.206 0-469.333-210.128-469.333-469.333 0-259.204 210.128-469.333 469.333-469.333s469.333 210.129 469.333 469.333zM128 448c0 212.077 171.923 384 384 384 212.079 0 384-171.923 384-384 0-212.079-171.921-384-384-384-212.077 0-384 171.921-384 384zM435.524 384.866l58.743-61.897c-30.665-29.099-70.985-45.636-113.78-45.636-92.587 0-167.154 76.672-167.154 170.667s74.568 170.667 167.154 170.667c45.702 0 88.509-18.865 119.706-51.546l-61.722-58.922c-15.322 16.047-35.942 25.135-57.985 25.135-44.919 0-81.821-37.943-81.821-85.333s36.902-85.333 81.821-85.333c20.637 0 40.025 7.953 55.037 22.199zM792.934 322.97l-58.743 61.897c-15.010-14.246-34.402-22.199-55.036-22.199-44.919 0-81.822 37.943-81.822 85.333s36.902 85.333 81.822 85.333c22.042 0 42.662-9.088 57.984-25.135l61.722 58.922c-31.198 32.681-74.005 51.546-119.706 51.546-92.587 0-167.155-76.672-167.155-170.667s74.569-170.667 167.155-170.667c42.795 0 83.115 16.538 113.779 45.636z" />
<glyph unicode="&#xe935;" glyph-name="0" d="M512 917.333c259.204 0 469.333-210.128 469.333-469.333 0-259.204-210.129-469.333-469.333-469.333-259.206 0-469.333 210.129-469.333 469.333 0 259.206 210.128 469.333 469.333 469.333zM512 832c-212.077 0-384-171.923-384-384 0-212.079 171.923-384 384-384 212.079 0 384 171.921 384 384 0 212.077-171.921 384-384 384zM704 448c0 173.324-77.952 256-192 256-111.544 0-192-87.77-192-256s80.456-256 192-256c114.048 0 192 82.675 192 256zM512 618.667c-62.677 0-106.667-47.988-106.667-170.667 0-38.259 4.278-69.252 12.067-93.794l129.676 259.356c-10.697 3.5-22.426 5.105-35.076 5.105zM607.369 543.333l-130.095-260.189c10.718-3.942 22.357-5.811 34.726-5.811 65.762 0 106.667 43.383 106.667 170.667 0 39.424-3.925 70.801-11.298 95.333z" />
<glyph unicode="&#xe936;" glyph-name="cloud" d="M768 149.333c117.82 0 213.333 95.514 213.333 213.333 0 107.307-79.228 196.112-182.383 211.104-36.284 125.722-152.183 215.562-286.95 215.562-100.12 0-191.615-49.71-246.618-130.145-125.989-16.349-222.715-124.096-222.715-253.855 0-141.385 114.615-256 256-256h469.333zM896 362.667c0-70.694-57.306-128-128-128h-469.333c-94.257 0-170.667 76.412-170.667 170.667 0 91.716 72.505 166.948 163.825 170.533l23.51 0.923 11.766 20.375c37.883 65.602 107.775 106.836 184.899 106.836 104.58 0 193.293-75.787 210.385-177.758l6.097-36.352 36.851 0.751c0.666 0.009 0.994 0.017 1.327 0.017 0.337 0.004 0.67 0.004 1.34 0.009 70.694 0 128-57.306 128-128z" />
<glyph unicode="&#xe937;" glyph-name="cloud-checked" d="M981.333 362.667c0-117.82-95.514-213.333-213.333-213.333h-469.333c-141.385 0-256 114.615-256 256 0 129.759 96.727 237.506 222.715 253.855 55.003 80.435 146.498 130.145 246.618 130.145 134.767 0 250.667-89.84 286.95-215.562 103.155-14.993 182.383-103.798 182.383-211.104zM768 234.667c70.694 0 128 57.306 128 128s-57.306 128-128 128l-1.34-0.009-1.327-0.017-36.851-0.751-6.097 36.352c-17.092 101.971-105.805 177.758-210.385 177.758-77.124 0-147.017-41.234-184.899-106.836l-11.766-20.375-23.51-0.923c-91.32-3.584-163.825-78.816-163.825-170.533 0-94.255 76.41-170.667 170.667-170.667h469.333zM567.164 563.503l-140.497-140.497-55.163 55.164-60.34-60.339 115.503-115.503 200.836 200.836-60.339 60.34z" />
<glyph unicode="&#xe938;" glyph-name="cloud-connect" d="M938.667 512c0 88.937-63.266 164.036-149.628 185.71-38.396 104.686-149.862 176.957-277.039 176.957-107.924 0-205.708-52.087-256.108-134.001-98.37-22.752-170.558-107.326-170.558-207.333 0-118.383 100.535-213.333 223.372-213.333h160.628v-49.95c-36.369-12.855-65.195-41.681-78.050-78.050h-220.617v-85.333h220.617c17.571-49.715 64.985-85.333 120.716-85.333s103.147 35.618 120.717 85.333h220.617v85.333h-220.617c-12.855 36.369-41.681 65.195-78.050 78.050v49.95h183.215c110.362 0 200.785 85.397 200.785 192zM554.667 149.333c0-23.565-19.102-42.667-42.667-42.667s-42.667 19.102-42.667 42.667c0 23.565 19.102 42.667 42.667 42.667s42.667-19.102 42.667-42.667zM751.219 617.965c58.342-6.186 102.114-52.128 102.114-105.965 0-58.347-51.162-106.667-115.452-106.667h-429.176c-76.765 0-138.039 57.869-138.039 128 0 63.411 50.382 117.704 118.306 126.705l22.499 2.982 10.102 20.324c31.32 63.009 105.669 105.989 190.426 105.989 100.113 0 183.953-59.759 202.146-138.541l6.844-29.622 30.229-3.206z" />
<glyph unicode="&#xe939;" glyph-name="cloud-download" d="M768 234.667v-85.333c117.82 0 213.333 95.514 213.333 213.333 0 107.307-79.228 196.112-182.383 211.104-36.284 125.722-152.183 215.562-286.95 215.562-100.12 0-191.615-49.71-246.618-130.145-125.989-16.349-222.715-124.096-222.715-253.855 0-126.848 92.258-232.149 213.333-252.459v87.168c-73.61 18.948-128 85.769-128 165.291 0 91.716 72.505 166.948 163.825 170.533l23.509 0.923 11.766 20.375c37.883 65.602 107.775 106.836 184.899 106.836 104.58 0 193.293-75.787 210.385-177.758l6.097-36.352 36.851 0.751c0.666 0.009 0.994 0.017 1.327 0.017 0.337 0.004 0.67 0.004 1.34 0.009 70.694 0 128-57.306 128-128s-57.306-128-128-128zM469.333 448v-266.807l-97.83 95.744-60.34-59.051 200.837-196.553 200.836 196.553-60.339 59.051-97.83-95.744v266.807h-85.333z" />
<glyph unicode="&#xe93a;" glyph-name="cloud-no" d="M750.327 149.329h-451.661c-141.385 0-256 114.615-256 256 0 122.368 86.018 225.157 201.477 250.184l-188.98 188.98 60.34 60.34 853.333-853.335-60.339-60.339-158.17 158.17zM318.094 581.563l-2.759-4.778-23.51-0.923c-91.32-3.584-163.825-78.817-163.825-170.534 0-94.255 76.41-170.667 170.667-170.667h366.327l-346.9 346.901zM862.963 276.838l60.386-60.386c35.955 38.187 57.984 89.626 57.984 146.21 0 107.311-79.228 196.113-182.383 211.105-36.284 125.722-152.183 215.562-286.95 215.562-46.537 0-91.206-10.739-131.217-30.31l65.386-65.388c20.885 6.765 43.042 10.364 65.83 10.364 104.58 0 193.293-75.787 210.385-177.754l6.097-36.356 36.851 0.751c0.666 0.013 0.994 0.017 1.327 0.021 0.337 0 0.67 0.004 1.34 0.004 70.694 0 128-57.306 128-128 0-33.020-12.506-63.121-33.037-85.824z" />
<glyph unicode="&#xe93b;" glyph-name="cloud-upload" d="M725.333 234.667v-85.333h42.667c117.82 0 213.333 95.514 213.333 213.333 0 107.307-79.228 196.112-182.383 211.104-36.284 125.722-152.183 215.562-286.95 215.562-100.12 0-191.615-49.71-246.618-130.145-125.989-16.349-222.715-124.096-222.715-253.855 0-141.385 114.615-256 256-256v85.333c-94.257 0-170.667 76.412-170.667 170.667 0 91.716 72.505 166.948 163.825 170.533l23.509 0.923 11.766 20.375c37.883 65.602 107.775 106.836 184.899 106.836 104.58 0 193.293-75.787 210.385-177.758l6.097-36.352 36.851 0.751c0.666 0.009 0.994 0.017 1.327 0.017 0.337 0.004 0.67 0.004 1.34 0.009 70.694 0 128-57.306 128-128s-57.306-128-128-128h-42.667zM554.667 64v280.994l97.83-97.83 60.339 60.339-200.836 200.836-200.837-200.836 60.34-60.339 97.83 97.83v-280.994h85.333z" />
<glyph unicode="&#xe93c;" glyph-name="code" d="M512-21.333c-259.206 0-469.333 210.129-469.333 469.333 0 259.206 210.128 469.333 469.333 469.333 259.204 0 469.333-210.128 469.333-469.333 0-259.204-210.129-469.333-469.333-469.333zM512 64c212.079 0 384 171.921 384 384 0 212.077-171.921 384-384 384-212.077 0-384-171.923-384-384 0-212.079 171.923-384 384-384zM353.83 247.164l60.34 60.339-140.497 140.497 140.497 140.497-60.34 60.34-200.836-200.837 200.836-200.836zM609.83 588.497l60.339 60.34 200.836-200.837-200.836-200.836-60.339 60.339 140.497 140.497-140.497 140.497zM427.247 199.014l84.173-14.029 85.333 512-84.173 14.029-85.333-512z" />
<glyph unicode="&#xe93d;" glyph-name="database" d="M213.333 448c0-35.712 132.321-85.333 298.667-85.333s298.667 49.621 298.667 85.333v144.179c-70.63-37.729-178.581-58.845-298.667-58.845-120.087 0-228.035 21.116-298.667 58.845v-144.179zM128 448v256c0 105.672 173.319 170.667 384 170.667 210.679 0 384-64.995 384-170.667v-512c0-105.673-173.321-170.667-384-170.667-210.681 0-384 64.994-384 170.667v256zM810.667 336.179c-70.63-37.73-178.581-58.846-298.667-58.846s-228.035 21.116-298.667 58.846v-144.179c0-35.712 132.321-85.333 298.667-85.333s298.667 49.621 298.667 85.333v144.179zM512 618.667c166.345 0 298.667 49.62 298.667 85.333s-132.322 85.333-298.667 85.333c-166.345 0-298.667-49.62-298.667-85.333s132.321-85.333 298.667-85.333z" />
<glyph unicode="&#xe93e;" glyph-name="terminal" d="M896 832h-768c-47.128 0-85.333-38.205-85.333-85.333v-597.333c0-47.13 38.205-85.333 85.333-85.333h768c47.13 0 85.333 38.204 85.333 85.333v597.333c0 47.128-38.204 85.333-85.333 85.333zM128 149.333v597.333h768v-597.333h-768zM355.555 448l-125.155 93.867 51.2 68.267 216.179-162.133-216.179-162.133-51.2 68.267 125.155 93.867zM512 362.667v-85.333h213.333v85.333h-213.333z" />
<glyph unicode="&#xe93f;" glyph-name="bag" d="M893.696 874.667l42.402-763.268c2.615-47.053-33.412-87.322-80.469-89.933-1.182-0.055-1.775-0.081-2.364-0.098-0.593-0.017-1.186-0.021-2.368-0.034h-677.795c-47.128 0-85.333 38.204-85.333 85.333 0.022 2.368 0.022 2.368 0.131 4.732l42.403 763.268h763.393zM211.028 789.333l-37.926-682.667h677.795l-37.926 682.667h-601.943zM383.999 704h-85.333v-106.667c0-102.43 99.125-192 213.335-192 114.206 0 213.333 89.57 213.333 192v106.667h-85.333v-106.667c0-53.264-59.102-106.667-128-106.667-68.902 0-128.001 53.403-128.001 106.667v106.667z" />
<glyph unicode="&#xe940;" glyph-name="bascket" d="M170.667 576.001h85.324c0.012-15.639 8.655-30.692 23.595-38.162 21.076-10.539 46.705-1.996 57.243 19.081l9.54 19.081h331.263l9.54-19.081c10.539-21.076 36.164-29.62 57.242-19.081 14.942 7.47 23.582 22.523 23.595 38.162h85.325v-85.335h-682.667v85.335zM730.368 661.335l-94.874 189.748c-10.539 21.076-36.164 29.619-57.242 19.081s-29.619-36.167-19.081-57.243l75.793-151.585h-245.929l75.792 151.585c10.539 21.076 1.997 46.705-19.081 57.243-21.076 10.538-46.705 1.996-57.243-19.081l-94.874-189.748h-122.964c-47.128 0-85.333-38.205-85.333-85.333v-85.335c0-35.831 22.087-66.509 53.391-79.151-0.583-8.081-0.017-16.38 1.83-24.691l66.371-298.667c8.676-39.044 43.305-66.825 83.301-66.825h443.547c39.996 0 74.628 27.78 83.302 66.825l66.372 298.667c1.348 6.076 2.031 12.284 2.031 18.509 0 2.078-0.077 4.134-0.222 6.174 31.313 12.638 53.41 43.319 53.41 79.159v85.335c0 47.128-38.204 85.333-85.333 85.333h-122.965zM223.856 405.333h576.289l-66.372-298.667h-443.547l-66.37 298.667z" />
<glyph unicode="&#xe941;" glyph-name="cart" d="M259.040 789.225c-7.578 0.016-14.883-0.841-21.824-2.472-9.516 20.973-22.084 39.788-36.38 54.084-24.264 24.263-62.531 33.83-115.503 33.83v-85.333c32.361 0 50.982-4.655 55.163-8.837 16.127-16.127 30.17-48.894 30.17-76.497l0.429-6.034 41.808-292.654c-69.955-3.631-124.148-57.954-127.517-125.862l-0.052-44.783c4.131-70.14 58.144-124.096 125.578-127.932l9.686-0.013c17.556-49.745 64.983-85.389 120.736-85.389 55.732 0 103.147 35.618 120.717 85.333h99.9c17.57-49.715 64.986-85.333 120.717-85.333 70.694 0 128 57.306 128 128s-57.306 128-128 128c-55.731 0-103.147-35.618-120.717-85.333h-99.9c-17.57 49.715-64.985 85.333-120.717 85.333s-103.145-35.618-120.716-85.333h-7.284c-21.76 1.306-41.278 20.804-42.743 45.222l0.076 40.111c1.151 22.131 20.536 41.515 44.781 42.718l514.874-0.051 6.298 1.997c32.35 10.266 58.244 34.628 70.507 66.163l4.497 8.896 14.605 28.932c15.108 29.952 30.217 59.951 44.941 89.263 36.062 71.796 58.743 117.425 63.765 128.629 25.796 57.541-26.458 101.828-79.863 102.771l-596.030 42.574zM715.494 405.333h-412.012c-2.74 0.759-4.827 3.081-5.236 5.973l-41.809 292.662 592.347-42.419c-10.364-21.137-29.205-58.89-53.871-107.996l-0.619-1.231c-14.080-28.031-29.171-57.991-44.258-87.901l-20.113-39.838-2.082-4.838c-2.231-6.212-6.656-11.315-12.348-14.413zM682.667 106.667c23.565 0 42.667 19.102 42.667 42.667s-19.102 42.667-42.667 42.667c-23.565 0-42.667-19.102-42.667-42.667s19.102-42.667 42.667-42.667zM384 149.333c0-23.565-19.103-42.667-42.667-42.667s-42.667 19.102-42.667 42.667c0 23.565 19.103 42.667 42.667 42.667s42.667-19.102 42.667-42.667z" />
<glyph unicode="&#xe942;" glyph-name="coupon" d="M981.333 192c0-47.13-38.204-85.333-85.333-85.333h-768c-47.128 0-85.333 38.204-85.333 85.333v132.774l21.302 12.322c39.333 22.754 64.031 64.653 64.031 110.903s-24.698 88.149-64.031 110.902l-21.302 12.323v132.775c0 47.128 38.205 85.333 85.333 85.333h768c47.13 0 85.333-38.205 85.333-85.333v-132.775l-21.303-12.323c-39.33-22.753-64.030-64.652-64.030-110.902s24.7-88.149 64.030-110.903l21.303-12.322v-132.774zM810.667 448c0 68.288 32.384 130.97 85.333 170.689v85.311h-256c0-23.564-19.102-42.667-42.667-42.667s-42.667 19.103-42.667 42.667h-426.667v-85.311c52.95-39.719 85.333-102.401 85.333-170.689s-32.384-130.97-85.333-170.688v-85.312h426.667c0 23.565 19.102 42.667 42.667 42.667s42.667-19.102 42.667-42.667h256v85.312c-52.949 39.718-85.333 102.4-85.333 170.688zM597.333 277.333c23.565 0 42.667 19.102 42.667 42.667s-19.102 42.667-42.667 42.667c-23.565 0-42.667-19.102-42.667-42.667s19.102-42.667 42.667-42.667zM640 448c0-23.565-19.102-42.667-42.667-42.667s-42.667 19.102-42.667 42.667c0 23.565 19.102 42.667 42.667 42.667s42.667-19.102 42.667-42.667zM597.333 533.333c23.565 0 42.667 19.103 42.667 42.667s-19.102 42.667-42.667 42.667c-23.565 0-42.667-19.103-42.667-42.667s19.102-42.667 42.667-42.667z" />
<glyph unicode="&#xe943;" glyph-name="cut-coupon" d="M213.333 618.667c-70.692 0-128 57.308-128 128s57.308 128 128 128c70.692 0 128-57.308 128-128 0-13.341-2.041-26.204-5.827-38.296l105.382-79.037 258.846 194.133 51.2-68.267-238.933-179.2 238.933-179.2-51.2-68.267-258.846 194.133-105.382-79.036c3.787-12.092 5.827-24.956 5.827-38.298 0-70.694-57.308-128-128-128s-128 57.306-128 128c0 70.694 57.308 128 128 128 26.246 0 50.647-7.898 70.955-21.449l85.489 64.115-85.489 64.117c-20.308-13.551-44.709-21.45-70.955-21.45zM810.667 533.333v85.333h-85.333v-85.333h85.333zM853.333 405.333v85.333h85.333v-85.333h-85.333zM853.333 362.667h85.333v-85.333h-85.333v85.333zM853.333 21.333h85.333v85.333h-85.333v-85.333zM853.333 234.667h85.333v-85.333h-85.333v85.333zM725.333 21.333h85.333v85.333h-85.333v-85.333zM597.333 106.667h85.333v-85.333h-85.333v85.333zM341.333 21.333h85.333v85.333h-85.333v-85.333zM469.333 106.667h85.333v-85.333h-85.333v85.333zM213.333 21.333h85.333v85.333h-85.333v-85.333zM213.333 234.667h85.333v-85.333h-85.333v85.333zM682.667 618.667v-85.333h-85.333v85.333h85.333zM938.667 533.333v85.333h-85.333v-85.333h85.333zM213.333 362.667c23.564 0 42.667 19.102 42.667 42.667s-19.103 42.667-42.667 42.667c-23.564 0-42.667-19.102-42.667-42.667s19.103-42.667 42.667-42.667zM256 746.667c0 23.564-19.103 42.667-42.667 42.667s-42.667-19.103-42.667-42.667c0-23.564 19.103-42.667 42.667-42.667s42.667 19.103 42.667 42.667z" />
<glyph unicode="&#xe944;" glyph-name="delivery" d="M698.965 661.333h-570.965v-384h49.95c17.571 49.715 64.984 85.333 120.716 85.333s103.145-35.618 120.716-85.333h185.233c17.57 49.715 64.986 85.333 120.717 85.333s103.147-35.618 120.717-85.333h49.95v147.831l-118.43 78.955-78.605 157.214zM896 192h-49.95c-17.57-49.715-64.986-85.333-120.717-85.333s-103.147 35.618-120.717 85.333h-185.233c-17.571-49.715-64.984-85.333-120.716-85.333s-103.145 35.618-120.716 85.333h-49.95c-47.128 0-85.333 38.204-85.333 85.333v384c0 47.128 38.205 85.333 85.333 85.333h570.965c32.32 0 61.867-18.261 76.322-47.171l68.476-136.947 137.57-91.714v-193.502c0-47.13-38.204-85.333-85.333-85.333zM341.333 234.667c0 23.565-19.103 42.667-42.667 42.667s-42.667-19.102-42.667-42.667c0-23.565 19.103-42.667 42.667-42.667s42.667 19.102 42.667 42.667zM768 234.667c0 23.565-19.102 42.667-42.667 42.667s-42.667-19.102-42.667-42.667c0-23.565 19.102-42.667 42.667-42.667s42.667 19.102 42.667 42.667z" />
<glyph unicode="&#xe945;" glyph-name="discount" d="M512-21.333c-259.206 0-469.333 210.129-469.333 469.333 0 259.206 210.128 469.333 469.333 469.333 259.204 0 469.333-210.128 469.333-469.333 0-259.204-210.129-469.333-469.333-469.333zM512 64c212.079 0 384 171.921 384 384 0 212.077-171.921 384-384 384-212.077 0-384-171.923-384-384 0-212.079 171.923-384 384-384zM554.667 320c0-70.694 57.306-128 128-128s128 57.306 128 128c0 70.694-57.306 128-128 128s-128-57.306-128-128zM682.667 277.333c23.565 0 42.667 19.102 42.667 42.667s-19.102 42.667-42.667 42.667c-23.565 0-42.667-19.102-42.667-42.667s19.102-42.667 42.667-42.667zM213.333 576c0-70.694 57.308-128 128-128s128 57.306 128 128c0 70.692-57.308 128-128 128s-128-57.308-128-128zM341.333 533.333c23.564 0 42.667 19.102 42.667 42.667s-19.103 42.667-42.667 42.667c-23.564 0-42.667-19.103-42.667-42.667s19.103-42.667 42.667-42.667zM431.701 192l256 512h-95.403l-256.001-512h95.404z" />
<glyph unicode="&#xe946;" glyph-name="filter" d="M85.333 687.968l298.667-341.332v-365.538l256 96v269.538l298.667 341.332v101.365c0 47.128-38.204 85.333-85.333 85.333h-682.667c-47.128 0-85.333-38.205-85.333-85.333v-101.365zM853.333 789.333v-42.667h-682.667v42.667h682.667zM222.028 661.333h579.944l-224-256h-131.942l-224.001 256zM469.333 320v-215.765l85.333 32v183.765h-85.333z" />
<glyph unicode="&#xe947;" glyph-name="gift" d="M234.54 661.333c-14.004 22.896-21.207 51.078-21.207 85.333 0 67.537 50.788 128 128 128 77.312 0 139.661-51.782 170.667-132.857 31.006 81.075 93.355 132.857 170.667 132.857 77.21 0 128-60.463 128-128 0-34.255-7.202-62.438-21.205-85.333h63.872c47.13 0 85.333-38.205 85.333-85.333v-85.333c0-47.13-38.204-85.333-85.333-85.333v-298.667c0-47.13-38.204-85.333-85.333-85.333h-512c-47.128 0-85.333 38.204-85.333 85.333v298.667c-47.128 0-85.333 38.204-85.333 85.333v85.333c0 47.128 38.205 85.333 85.333 85.333h63.874zM469.333 576h-298.667v-85.333h298.667v85.333zM853.333 490.667v85.333h-298.667v-85.333h298.667zM469.333 106.667v298.667h-213.333v-298.667h213.333zM768 106.667v298.667h-213.333v-298.667h213.333zM341.333 789.333c-26.468 0-42.667-19.284-42.667-42.667 0-53.471 43.392-78.896 146.321-84.245-11.439 79.483-54.068 126.912-103.654 126.912zM576 662.422c102.929 5.349 146.321 30.774 146.321 84.245 0 23.383-16.196 42.667-42.667 42.667-49.587 0-92.215-47.428-103.654-126.912z" />
<glyph unicode="&#xe948;" glyph-name="pos" d="M853.333 704c47.13 0 85.333-38.205 85.333-85.333v-341.333c0-47.13-38.204-85.333-85.333-85.333h-170.667v-82.825c0-47.987-37.641-87.842-85.333-87.842h-426.667c-47.691 0-85.333 39.855-85.333 87.842v677.648c0 47.986 37.643 87.843 85.333 87.843h426.667c47.693 0 85.333-39.857 85.333-87.843v-82.824h170.667zM682.667 490.667v-213.333h170.667v213.333h-170.667zM597.333 109.175v677.648c0 0.851-0.111 1.441-0.183 1.835-0.094 0.491-0.128 0.675 0.183 0.675h-426.667c0.312 0 0.278-0.184 0.185-0.675-0.074-0.393-0.185-0.984-0.185-1.835v-677.648c0-0.849 0.111-1.442 0.185-1.835 0.093-0.491 0.127-0.674-0.185-0.674h426.667c-0.311 0-0.277 0.183-0.183 0.674 0.073 0.393 0.183 0.986 0.183 1.835zM213.333 234.667h85.333v-85.333h-85.333v85.333zM341.333 149.333h85.333v85.333h-85.333v-85.333zM469.333 234.667h85.333v-85.333h-85.333v85.333zM213.333 277.333h85.333v85.333h-85.333v-85.333zM341.333 362.667h85.333v-85.333h-85.333v85.333zM469.333 277.333h85.333v85.333h-85.333v-85.333zM554.667 405.333h-341.333v341.333h341.333v-341.333zM298.667 661.333v-170.667h170.667v170.667h-170.667zM853.333 618.667h-170.667v-42.667h170.667v42.667z" />
<glyph unicode="&#xe949;" glyph-name="tag" d="M278.834 746.667h617.166c47.13 0 85.333-38.205 85.333-85.333v-426.667c0-47.13-38.204-85.333-85.333-85.333h-617.166c-28.531 0-55.175 14.259-71.002 37.999l-158 237.001c-9.554 14.332-9.554 33.003 0 47.334l158 237.001c15.826 23.74 42.47 37.999 71.002 37.999zM136.612 448l142.222-213.333h617.166v426.667h-617.166l-142.222-213.333zM341.333 448c0-23.565-19.103-42.667-42.667-42.667s-42.667 19.102-42.667 42.667c0 23.565 19.103 42.667 42.667 42.667s42.667-19.102 42.667-42.667z" />
<glyph unicode="&#xe94a;" glyph-name="tote" d="M300.101 704h-122.905c-4.038 0-8.071-0.287-12.068-0.858-46.655-6.665-79.072-49.889-72.407-96.544l73.143-511.998c6.006-42.039 42.010-73.267 84.476-73.267h523.323c42.466 0 78.473 31.228 84.476 73.267l73.143 511.998c0.572 3.997 0.858 8.030 0.858 12.068 0 47.128-38.204 85.333-85.333 85.333h-122.906c-12.544 93.219-105.698 170.667-211.9 170.667-106.199 0-199.356-77.448-211.899-170.667zM636.924 704h-249.846c12.97 45.309 65.274 85.333 124.922 85.333s111.953-40.025 124.924-85.333zM177.196 618.667h121.472v-85.333h85.333v85.333h255.999v-85.333h85.333v85.333h121.472l-73.143-512h-523.323l-73.143 512z" />
<glyph unicode="&#xe94b;" glyph-name="key" d="M341.333 576c0 164.949 133.717 298.667 298.667 298.667s298.667-133.718 298.667-298.667c0-164.949-133.717-298.667-298.667-298.667h-85.333v-85.333h-85.333v-85.333h-85.333v-85.333h-298.667v231.006l262.315 262.315c-4.184 20.025-6.315 40.554-6.315 61.346zM469.333 277.333v85.333h170.667c117.82 0 213.333 95.514 213.333 213.333s-95.514 213.333-213.333 213.333c-117.82 0-213.333-95.513-213.333-213.333 0-21.275 3.102-42.086 9.135-61.99l7.415-24.465-272.55-272.55v-110.327h128v85.333h85.333v85.333h85.333zM554.667 576c0-47.13 38.204-85.333 85.333-85.333s85.333 38.204 85.333 85.333c0 47.128-38.204 85.333-85.333 85.333s-85.333-38.205-85.333-85.333z" />
<glyph unicode="&#xe94c;" glyph-name="key-no" d="M55.162 844.494l286.718-286.718c0.879-14.57 2.81-28.974 5.767-43.126l-262.315-262.315v-231.006h298.667v85.333h85.335v85.333h85.333v85.333h67.657l286.17-286.17 60.343 60.339-853.335 853.335-60.34-60.34zM426.665 472.99l110.325-110.327h-67.657v-85.333h-85.335v-85.333h-85.333v-85.333h-128v110.327l256 256zM394.157 745.644c53.894 77.949 143.904 129.019 245.843 129.019 164.945 0 298.667-133.717 298.667-298.667 0-101.936-51.072-191.95-129.020-245.842l-61.76 61.76c63.091 37.056 105.446 105.626 105.446 184.082 0 117.821-95.514 213.333-213.333 213.333-78.46 0-147.025-42.354-184.085-105.446l-61.758 61.76zM640 661.33c-44.194 0-80.538-33.591-84.898-76.631l93.598-93.597c43.042 4.361 76.634 40.704 76.634 84.895 0 47.128-38.208 85.333-85.333 85.333z" />
<glyph unicode="&#xe94d;" glyph-name="lock" d="M298.667 661.333v-128h-42.667c-45.583 0-85.333-33.126-85.333-78.221v-355.558c0-45.094 39.75-78.221 85.333-78.221h512c45.585 0 85.333 33.126 85.333 78.221v355.558c0 45.094-39.748 78.221-85.333 78.221h-42.667v128c0 117.821-95.514 213.333-213.333 213.333s-213.333-95.513-213.333-213.333zM640 661.333v-128h-256v128c0 70.692 57.306 128 128 128s128-57.308 128-128zM256 106.667v341.333h512v-341.333h-512zM554.667 277.333c0-23.565-19.102-42.667-42.667-42.667s-42.667 19.102-42.667 42.667c0 23.565 19.102 42.667 42.667 42.667s42.667-19.102 42.667-42.667z" />
<glyph unicode="&#xe94e;" glyph-name="lock-circle" d="M42.667 490.667c0-259.204 210.128-469.333 469.333-469.333 259.204 0 469.333 210.129 469.333 469.333 0 259.206-210.129 469.333-469.333 469.333-259.206 0-469.333-210.128-469.333-469.333zM896 490.667c0-212.079-171.921-384-384-384-212.077 0-384 171.921-384 384 0 212.077 171.923 384 384 384 212.079 0 384-171.923 384-384zM469.333 661.333v-85.333h85.333v85.333c0 23.564-19.102 42.667-42.667 42.667s-42.667-19.103-42.667-42.667zM640 576c47.13 0 85.333-38.205 85.333-85.333v-170.667c0-47.13-38.204-85.333-85.333-85.333h-256c-47.128 0-85.333 38.204-85.333 85.333v170.667c0 47.128 38.205 85.333 85.333 85.333v85.333c0 70.692 57.306 128 128 128s128-57.308 128-128v-85.333zM384 490.667v-170.667h256v170.667h-256zM469.333 405.333c0-23.565 19.102-42.667 42.667-42.667s42.667 19.102 42.667 42.667c0 23.565-19.102 42.667-42.667 42.667s-42.667-19.102-42.667-42.667z" />
<glyph unicode="&#xe94f;" glyph-name="lock-no" d="M103.006 904.833l853.333-853.335-60.339-60.339-60.395 60.395c-15.868-18.701-40.721-30.225-67.605-30.225h-512c-45.583 0-85.333 33.126-85.333 78.225v355.554c0 45.099 39.75 78.221 85.333 78.221h42.667v55.165l-256 256 60.34 60.34zM768 119.159l-328.836 328.836h-183.164v-341.333h512v12.497zM768 359.305v88.691h-88.691l-85.333 85.333h46.025v128.001c0 70.693-57.306 128-128 128-47.155 0-88.355-25.499-110.563-63.461l-61.543 61.544c38.823 52.905 101.454 87.251 172.106 87.251 117.82 0 213.333-95.512 213.333-213.333v-128.001h42.667c45.585 0 85.333-33.122 85.333-78.221v-181.137l-85.333 85.333zM512 234.662c23.565 0 42.667 19.102 42.667 42.667s-19.102 42.667-42.667 42.667c-23.565 0-42.667-19.102-42.667-42.667s19.102-42.667 42.667-42.667z" />
<glyph unicode="&#xe950;" glyph-name="shield" d="M128 320c0-113.51 128-227.29 384-341.333 256 113.779 384 227.554 384 341.333 0 16.273 0.073 51.059 0.162 94.093 0.265 126.191 0.678 323.305-0.162 332.574 0 32.751-12.57 40.362-47.356 61.428-10.534 6.378-23.104 13.99-37.978 23.906-64 42.667-170.871 85.333-298.667 85.333-146.636 0-291.764-80.731-298.667-85.333-14.874-9.916-27.444-17.527-37.976-23.906-34.787-21.065-47.357-28.677-47.357-61.428v-426.667zM810.743 373.133c-0.051-26.842-0.077-43.307-0.077-53.133 0-64.606-95.053-152.478-298.628-247.552-203.596 95.287-298.705 183.189-298.705 247.552v411.165c1.716 1.066 3.544 2.2 5.452 3.383 13.797 8.559 31.78 19.716 41.882 26.45 39.221 26.147 159.091 71.002 251.332 71.002 96.435 0 188.343-29.010 251.332-71.002 10.103-6.735 28.083-17.891 41.882-26.45 2.061-1.278 4.028-2.499 5.862-3.637 0.090-25.282 0.132-107.023-0.026-202.262-0.034-22.076-0.077-45.214-0.132-72.175l-0.175-83.341z" />
<glyph unicode="&#xe951;" glyph-name="shield-lock" d="M128 320c0-113.51 128-227.29 384-341.333 256 113.779 384 227.554 384 341.333 0 16.273 0.073 51.059 0.162 94.093 0.265 126.191 0.678 323.305-0.162 332.574 0 32.751-12.57 40.362-47.356 61.428-10.534 6.378-23.104 13.99-37.978 23.906-64 42.667-170.871 85.333-298.667 85.333-146.636 0-291.764-80.731-298.667-85.333-14.874-9.916-27.444-17.527-37.976-23.906v0c-34.787-21.065-47.357-28.677-47.357-61.428v-426.667zM810.743 373.133c-0.051-26.842-0.077-43.307-0.077-53.133 0-64.606-95.053-152.478-298.628-247.552-203.596 95.287-298.705 183.189-298.705 247.552v411.165l5.453 3.384c13.797 8.559 31.78 19.715 41.882 26.45 39.221 26.147 159.091 71.002 251.332 71.002 96.435 0 188.343-29.010 251.332-71.002 10.103-6.735 28.083-17.891 41.882-26.45l5.862-3.637c0.090-25.282 0.132-107.023-0.026-202.262-0.034-22.076-0.077-45.214-0.132-72.175l-0.175-83.341zM640 576c47.13 0 85.333-38.205 85.333-85.333v-170.667c0-47.13-38.204-85.333-85.333-85.333h-256c-47.128 0-85.333 38.204-85.333 85.333v170.667c0 47.128 38.205 85.333 85.333 85.333v85.333c0 70.692 57.306 128 128 128s128-57.308 128-128v-85.333zM554.667 661.333v-85.333h-85.333v85.333c0 23.564 19.102 42.667 42.667 42.667s42.667-19.103 42.667-42.667zM384 320v170.667h256v-170.667h-256zM469.333 405.333c0-23.565 19.102-42.667 42.667-42.667s42.667 19.102 42.667 42.667c0 23.565-19.102 42.667-42.667 42.667s-42.667-19.102-42.667-42.667z" />
<glyph unicode="&#xe952;" glyph-name="shield-no" d="M512 917.333c-89.225 0-177.89-29.889-235.197-54.331l64.926-64.926c51.485 18.232 115.709 33.924 170.271 33.924 96.431 0 188.343-29.010 251.332-71.002 10.099-6.735 28.083-17.89 41.877-26.449 2.061-1.279 4.028-2.499 5.862-3.639 0.094-25.282 0.137-107.023-0.021-202.262-0.038-22.080-0.081-45.214-0.137-72.175l-0.171-83.341c-0.038-19.823-0.064-33.988-0.073-43.998l72.213-72.213c8.742 21.026 13.116 42.052 13.116 63.078 0 16.273 0.073 51.059 0.162 94.093 0.265 126.191 0.678 323.305-0.162 332.574 0 32.751-12.57 40.362-47.36 61.428-10.53 6.378-23.1 13.99-37.973 23.906-64 42.667-170.871 85.333-298.667 85.333zM131.005 768.654l-75.843 75.843 60.34 60.34 853.335-853.334-60.343-60.339-135.582 135.586c-62.882-49.361-149.85-98.722-260.911-148.083-256.002 114.044-384.002 227.823-384.002 341.333v426.667c0 8.941 0.937 16.008 3.007 21.987zM712.286 187.371l-498.955 498.956v-366.327c0-64.363 95.109-152.265 298.707-247.552 85.606 39.979 152.021 78.686 200.247 114.923z" />
<glyph unicode="&#xe953;" glyph-name="shield-ok" d="M512-21.333c-256 114.044-384 227.823-384 341.333v426.667c0 32.751 12.57 40.362 47.357 61.428v0c10.533 6.378 23.102 13.99 37.976 23.906 6.903 4.602 152.030 85.333 298.667 85.333 127.795 0 234.667-42.667 298.667-85.333 14.874-9.916 27.443-17.527 37.978-23.906 34.786-21.065 47.356-28.677 47.356-61.428 0.841-9.268 0.427-206.383 0.162-332.574-0.090-43.034-0.162-77.82-0.162-94.093 0-113.779-128-227.554-384-341.333zM810.667 320c0 9.826 0.026 26.291 0.077 53.133l0.175 83.341c0.055 26.961 0.098 50.099 0.132 72.175 0.158 95.239 0.115 176.98 0.026 202.262l-5.862 3.637c-13.798 8.559-31.778 19.716-41.882 26.45-62.989 41.992-154.897 71.002-251.332 71.002-92.241 0-212.111-44.855-251.332-71.002-10.102-6.735-28.084-17.891-41.882-26.45v0l-5.452-3.383v-411.165c0-64.363 95.109-152.265 298.705-247.552 203.575 95.074 298.628 182.946 298.628 247.552zM652.497 606.17l-183.164-183.164-97.83 97.83-60.34-60.339 158.17-158.17 243.503 243.503-60.339 60.34z" />
<glyph unicode="&#xe954;" glyph-name="unlock" d="M298.667 490.667h-42.667c-47.128 0-85.333-38.204-85.333-85.333v-341.333c0-47.13 38.205-85.333 85.333-85.333h512c47.13 0 85.333 38.204 85.333 85.333v341.333c0 47.13-38.204 85.333-85.333 85.333h-384v213.333c0 70.692 57.306 128 128 128s128-57.308 128-128v-85.333h85.333v85.333c0 117.821-95.514 213.333-213.333 213.333s-213.333-95.513-213.333-213.333v-213.333zM256 64v341.333h512v-341.333h-512zM554.667 234.667c0 23.565-19.102 42.667-42.667 42.667s-42.667-19.102-42.667-42.667c0-23.565 19.102-42.667 42.667-42.667s42.667 19.102 42.667 42.667z" />
<glyph unicode="&#xe956;" glyph-name="verified" d="M180.131 116.13c-39.433 39.433-50.746 99.584-38.38 178.509-64.552 47.061-99.085 97.596-99.085 153.361s34.534 106.299 99.085 153.362c-12.367 78.923-1.054 139.074 38.38 178.507s99.584 50.746 178.507 38.38c47.063 64.552 97.597 99.085 153.362 99.085s106.3-34.534 153.361-99.085c78.925 12.367 139.076 1.054 178.509-38.38s50.743-99.584 38.379-178.507c64.55-47.063 99.085-97.597 99.085-153.362s-34.534-106.3-99.085-153.361c12.365-78.925 1.054-139.076-38.379-178.509s-99.584-50.743-178.509-38.379c-47.061-64.55-97.596-99.085-153.361-99.085s-106.299 34.534-153.362 99.085c-78.923-12.365-139.074-1.054-178.507 38.379zM369.177 166.485c17.32 3.708 35.13-3.669 44.754-18.539 37.581-58.061 71.087-83.947 98.069-83.947s60.489 25.886 98.069 83.947c9.626 14.869 27.435 22.246 44.753 18.539 67.631-14.481 109.628-9.092 128.708 9.984 19.076 19.081 24.465 61.077 9.984 128.708-3.708 17.318 3.669 35.127 18.539 44.753 58.061 37.581 83.947 71.087 83.947 98.069s-25.886 60.489-83.947 98.069c-14.869 9.624-22.246 27.434-18.539 44.754 14.481 67.628 9.092 109.627-9.984 128.706-19.081 19.078-61.077 24.468-128.708 9.985-17.318-3.709-35.127 3.668-44.753 18.538-37.581 58.062-71.087 83.948-98.069 83.948s-60.489-25.887-98.069-83.948c-9.624-14.87-27.434-22.247-44.754-18.538-67.628 14.484-109.627 9.094-128.706-9.985s-24.468-61.078-9.985-128.706c3.709-17.32-3.668-35.13-18.538-44.754-58.062-37.581-83.948-71.087-83.948-98.069s25.887-60.489 83.948-98.069c14.87-9.626 22.247-27.435 18.538-44.753-14.484-67.631-9.094-109.628 9.985-128.708 19.078-19.076 61.078-24.465 128.706-9.984zM652.497 606.17l-183.164-183.164-97.83 97.83-60.34-60.339 158.17-158.17 243.503 243.503-60.339 60.34z" />
<glyph unicode="&#xe957;" glyph-name="laughing" d="M42.667 448c0-259.204 210.128-469.333 469.333-469.333 259.204 0 469.333 210.129 469.333 469.333 0 259.206-210.129 469.333-469.333 469.333-259.206 0-469.333-210.128-469.333-469.333zM896 448c0-212.079-171.921-384-384-384-212.077 0-384 171.921-384 384 0 212.077 171.923 384 384 384 212.079 0 384-171.923 384-384zM513.37 149.333c-143.254 0-222.962 75.452-222.962 213.333v42.667h439.866l1.178-41.451c3.942-138.368-74.372-214.549-218.082-214.549zM643.733 320c-10.022-59.541-50.287-85.333-130.364-85.333-80.034 0-121.613 26.018-133.774 85.333h264.138zM597.333 618.667h128v-85.333h-128v85.333zM426.667 618.667h-128v-85.333h128v85.333z" />
<glyph unicode="&#xe958;" glyph-name="neutral" d="M512-21.333c-259.206 0-469.333 210.129-469.333 469.333 0 259.206 210.128 469.333 469.333 469.333 259.204 0 469.333-210.128 469.333-469.333 0-259.204-210.129-469.333-469.333-469.333zM512 64c212.079 0 384 171.921 384 384 0 212.077-171.921 384-384 384-212.077 0-384-171.923-384-384 0-212.079 171.923-384 384-384zM341.333 362.667v-85.333h341.333v85.333h-341.333zM597.333 490.667v85.333h128v-85.333h-128zM298.667 576v-85.333h128v85.333h-128z" />
<glyph unicode="&#xe959;" glyph-name="sad" d="M512-21.333c-259.206 0-469.333 210.129-469.333 469.333 0 259.206 210.128 469.333 469.333 469.333 259.204 0 469.333-210.128 469.333-469.333 0-259.204-210.129-469.333-469.333-469.333zM512 64c212.079 0 384 171.921 384 384 0 212.077-171.921 384-384 384-212.077 0-384-171.923-384-384 0-212.079 171.923-384 384-384zM512 264.627c56.299 0 107.917-27.409 139.721-72.627l69.798 49.092c-47.62 67.699-125.141 108.868-209.519 108.868s-161.901-41.169-209.517-108.868l69.799-49.092c31.802 45.218 83.42 72.627 139.718 72.627zM597.333 448v85.333h85.333v-85.333h-85.333zM341.333 533.333v-85.333h85.333v85.333h-85.333z" />
<glyph unicode="&#xe95a;" glyph-name="shocked" d="M42.667 448c0-259.204 210.128-469.333 469.333-469.333 259.204 0 469.333 210.129 469.333 469.333 0 259.206-210.129 469.333-469.333 469.333-259.206 0-469.333-210.128-469.333-469.333zM896 448c0-212.079-171.921-384-384-384-212.077 0-384 171.921-384 384 0 212.077 171.923 384 384 384 212.079 0 384-171.923 384-384zM512 533.333c94.255 0 170.667-76.412 170.667-170.667v-42.667c0-94.255-76.412-170.667-170.667-170.667-94.257 0-170.667 76.412-170.667 170.667v42.667c0 94.255 76.41 170.667 170.667 170.667zM426.667 362.667c0 47.13 38.204 85.333 85.333 85.333s85.333-38.204 85.333-85.333v-42.667c0-47.13-38.204-85.333-85.333-85.333s-85.333 38.204-85.333 85.333v42.667zM640 661.333h85.333v-85.333h-85.333v85.333zM384 661.333h-85.333v-85.333h85.333v85.333z" />
<glyph unicode="&#xe95b;" glyph-name="smiled" d="M512-21.333c-259.206 0-469.333 210.129-469.333 469.333 0 259.206 210.128 469.333 469.333 469.333 259.204 0 469.333-210.128 469.333-469.333 0-259.204-210.129-469.333-469.333-469.333zM512 64c212.079 0 384 171.921 384 384 0 212.077-171.921 384-384 384-212.077 0-384-171.923-384-384 0-212.079 171.923-384 384-384zM721.519 300.868l-69.798 49.092c-31.804-45.218-83.422-72.627-139.721-72.627s-107.917 27.409-139.718 72.627l-69.799-49.092c47.616-67.703 125.14-108.868 209.517-108.868s161.899 41.165 209.519 108.868zM597.333 490.667v85.333h85.333v-85.333h-85.333zM341.333 576v-85.333h85.333v85.333h-85.333z" />
<glyph unicode="&#xe95c;" glyph-name="alert-circle" d="M42.667 448c0-259.204 210.128-469.333 469.333-469.333 259.204 0 469.333 210.129 469.333 469.333 0 259.206-210.129 469.333-469.333 469.333-259.206 0-469.333-210.128-469.333-469.333zM896 448c0-212.079-171.921-384-384-384-212.077 0-384 171.921-384 384 0 212.077 171.923 384 384 384 212.079 0 384-171.923 384-384zM512.013 192.073c23.573 0 42.684 19.102 42.684 42.667 0 23.561-19.11 42.667-42.684 42.667-23.569 0-42.679-19.106-42.679-42.667 0-23.565 19.11-42.667 42.679-42.667zM554.82 704.070h-85.359v-341.331h85.359v341.331z" />
<glyph unicode="&#xe95d;" glyph-name="alert-octagon" d="M981.333 253.598v388.806l-274.931 274.929h-388.806l-274.929-274.929v-388.806l274.929-274.931h388.806l274.931 274.931zM352.942 832h318.115l224.943-224.942v-318.115l-224.943-224.943h-318.115l-224.942 224.943v318.115l224.942 224.942zM512.013 192.073c23.573 0 42.684 19.102 42.684 42.667 0 23.561-19.11 42.667-42.684 42.667-23.569 0-42.679-19.106-42.679-42.667 0-23.565 19.11-42.667 42.679-42.667zM554.82 704.070h-85.359v-341.331h85.359v341.331z" />
<glyph unicode="&#xe95e;" glyph-name="alert-triangle" d="M957.504 279.33l-298.893 510.958c-30.007 52.020-85.935 84.308-146.419 84.378-60.493 0.071-116.442-32.084-146.822-84.381l-299.005-511.144c-31.005-52.134-31.706-117.457-1.675-170.735 30.057-53.321 86.335-86.502 147.551-87.002h598.95c61.85 0.602 118.020 33.681 148.075 86.955 30.016 53.21 29.346 118.387-1.762 170.97zM139.865 235.789l299.226 511.522c15.155 26.085 42.948 42.058 72.998 42.023s57.835-16.074 72.734-41.908l299.132-511.359c15.68-26.509 16.017-59.14 0.986-85.781-15.049-26.679-43.183-43.247-74.167-43.55l-598.185 0.004c-30.319 0.247-58.509 16.87-73.561 43.571-15.036 26.675-14.685 59.375 0.838 85.478zM512.013 192.073c23.573 0 42.684 19.102 42.684 42.667 0 23.561-19.11 42.667-42.684 42.667-23.569 0-42.679-19.106-42.679-42.667 0-23.565 19.11-42.667 42.679-42.667zM554.82 618.737h-85.359v-298.665h85.359v298.665z" />
<glyph unicode="&#xe95f;" glyph-name="app-notification" d="M768 490.667c117.82 0 213.333 95.513 213.333 213.333s-95.514 213.333-213.333 213.333c-117.82 0-213.333-95.513-213.333-213.333s95.514-213.333 213.333-213.333zM810.667 448v-298.667h-597.333v597.333h298.667v85.333h-298.667c-47.128 0-85.333-38.205-85.333-85.333v-597.333c0-47.13 38.205-85.333 85.333-85.333h597.333c47.13 0 85.333 38.204 85.333 85.333v298.667h-85.333zM896 704c0-70.692-57.306-128-128-128s-128 57.308-128 128c0 70.692 57.306 128 128 128s128-57.308 128-128z" />
<glyph unicode="&#xe960;" glyph-name="bell" d="M810.667 533.333c0 173.192-95.505 293.397-219.076 329.484-4.476 11.578-11.546 22.341-21.158 31.372-32.845 30.858-84.019 30.858-116.864 0-9.591-9.012-16.653-19.747-21.129-31.296-123.731-35.93-219.106-155.873-219.106-329.561 0-112.38-22.657-175.351-64.599-220.983-7.012-7.633-26.011-25.109-38.881-36.949l-0.008-0.004c-6.086-5.598-10.8-9.937-12.226-11.371l-12.286-12.463v-145.498h259.754c8.783-45.312 33.37-75.631 77.833-102.763 54.694-33.378 123.465-33.378 178.159 0 39.241 23.945 65.549 60.745 76.224 102.763h261.363v145.498l-12.288 12.463c-1.293 1.31-5.815 5.483-11.733 10.94-12.83 11.836-32.201 29.709-39.322 37.487-41.971 45.845-64.657 108.898-64.657 220.881zM586.099 106.065h-151.812c6.029-11.213 16.303-19.682 33.084-29.922 27.405-16.721 61.854-16.721 89.259 0 12.689 7.744 22.605 17.993 29.47 29.922zM812.382 254.831c8.977-9.809 28.22-27.733 40.951-39.445v-23.987h-682.667v23.966c12.632 11.575 31.933 29.487 40.896 39.241 56.991 62.007 87.104 145.702 87.104 278.729 0 161.285 99.532 255.472 213.333 255.472 113.481 0 213.333-94.673 213.333-255.472 0-132.599 30.123-216.32 87.049-278.502z" />
<glyph unicode="&#xe961;" glyph-name="bell-add" d="M591.59 862.841c123.571-36.072 219.076-156.227 219.076-329.345 0-111.936 22.686-174.959 64.657-220.788 7.117-7.774 26.479-25.626 39.309-37.457l0.013-0.013c5.918-5.453 10.441-9.626 11.733-10.94l12.288-12.454v-145.434h-261.363c-10.675-42.001-36.983-78.784-76.224-102.72-54.694-33.365-123.465-33.365-178.159 0-44.463 27.119-69.050 57.425-77.833 102.72h-259.754v145.434l12.286 12.454c1.426 1.438 6.143 5.777 12.232 11.375 12.87 11.831 31.87 29.303 38.883 36.932 41.942 45.615 64.599 108.557 64.599 220.89 0 173.615 95.375 293.507 219.106 329.421 4.476 11.543 11.537 22.275 21.129 31.282 32.845 30.845 84.019 30.845 116.864 0 9.613-9.027 16.683-19.786 21.158-31.359zM434.287 106.411h151.812c-6.865-11.93-16.781-22.17-29.47-29.909-27.405-16.717-61.854-16.717-89.259 0-16.781 10.236-27.055 18.701-33.084 29.909zM853.333 215.68c-12.732 11.708-31.974 29.628-40.951 39.433-56.926 62.157-87.049 145.839-87.049 278.383 0 160.73-99.853 255.363-213.333 255.363-113.802 0-213.333-94.147-213.333-255.363 0-132.971-30.113-216.628-87.104-278.609-8.963-9.749-28.263-27.652-40.896-39.223v-23.957h682.667v23.974zM469.333 618.775v-127.946h-128v-85.295h128v-127.949h85.333v127.949h128v85.295h-128v127.946h-85.333z" />
<glyph unicode="&#xe962;" glyph-name="bell-alert" d="M810.667 533.333c0 173.192-95.505 293.397-219.076 329.484-4.476 11.578-11.546 22.341-21.158 31.372-32.845 30.858-84.019 30.858-116.864 0-9.591-9.012-16.653-19.747-21.129-31.296-123.731-35.93-219.106-155.873-219.106-329.561 0-112.38-22.657-175.351-64.599-220.983-7.012-7.633-26.011-25.109-38.881-36.949l-0.008-0.004c-6.086-5.598-10.8-9.937-12.226-11.371l-12.286-12.463v-145.498h259.754c8.783-45.312 33.37-75.631 77.833-102.763 54.694-33.378 123.465-33.378 178.159 0 39.241 23.945 65.549 60.745 76.224 102.763h261.363v145.498l-12.288 12.463c-1.293 1.31-5.815 5.483-11.733 10.94-12.83 11.836-32.201 29.709-39.322 37.487-41.971 45.845-64.657 108.898-64.657 220.881zM586.099 106.065h-151.812c6.029-11.213 16.303-19.682 33.084-29.922 27.405-16.721 61.854-16.721 89.259 0 12.689 7.744 22.605 17.993 29.47 29.922zM812.382 254.831c8.977-9.809 28.22-27.733 40.951-39.445v-23.987h-682.667v23.966c12.632 11.575 31.933 29.487 40.896 39.241 56.991 62.007 87.104 145.702 87.104 278.729 0 161.285 99.532 255.472 213.333 255.472 113.481 0 213.333-94.673 213.333-255.472 0-132.599 30.123-216.32 87.049-278.502zM512.013 277.406c23.573 0 42.684 19.102 42.684 42.667 0 23.561-19.11 42.667-42.684 42.667-23.569 0-42.679-19.106-42.679-42.667 0-23.565 19.11-42.667 42.679-42.667zM554.82 661.404h-85.359v-255.998h85.359v255.998z" />
<glyph unicode="&#xe963;" glyph-name="bell-checked" d="M689.596 681.732c-38.997 68.984-105.549 107.127-177.596 107.127-113.802 0-213.333-94.147-213.333-255.363 0-132.971-30.113-216.628-87.104-278.609-8.963-9.749-28.263-27.652-40.896-39.223v-23.957h682.667v23.974c-12.732 11.708-31.974 29.628-40.951 39.433-14.699 16.047-27.61 33.532-38.677 52.919l63.454 63.454c10.027-22.933 22.805-42.010 38.165-58.778 7.121-7.774 26.492-25.638 39.322-37.47l0.004-0.004c5.914-5.453 10.436-9.621 11.729-10.935l12.288-12.454v-145.434h-261.363c-10.675-42.001-36.983-78.784-76.224-102.72-54.694-33.365-123.465-33.365-178.159 0-44.463 27.119-69.050 57.425-77.833 102.72h-259.754v145.434l12.286 12.454c1.426 1.438 6.144 5.777 12.233 11.375 12.87 11.836 31.869 29.303 38.882 36.932 41.942 45.615 64.599 108.557 64.599 220.89 0 173.614 95.375 293.507 219.106 329.421 4.476 11.543 11.537 22.275 21.129 31.282 32.845 30.845 84.019 30.845 116.864 0 9.613-9.027 16.683-19.786 21.158-31.359 63.326-18.485 119.279-59.053 158.788-117.513l-60.783-63.595zM434.287 106.411c6.029-11.209 16.303-19.674 33.084-29.909 27.405-16.717 61.854-16.717 89.259 0 12.689 7.74 22.605 17.98 29.47 29.909h-151.812zM823.164 648.837l-183.164-183.164-97.83 97.831-60.339-60.34 158.17-158.17 243.503 243.503-60.339 60.34z" />
<glyph unicode="&#xe964;" glyph-name="bell-minus" d="M591.59 862.841c123.571-36.072 219.076-156.227 219.076-329.345 0-111.936 22.686-174.959 64.657-220.788 7.117-7.774 26.479-25.626 39.309-37.457l0.013-0.013c5.918-5.453 10.441-9.626 11.733-10.94l12.288-12.454v-145.434h-261.363c-10.675-42.001-36.983-78.784-76.224-102.72-54.694-33.365-123.465-33.365-178.159 0-44.463 27.119-69.050 57.425-77.833 102.72h-259.754v145.434l12.286 12.454c1.426 1.438 6.143 5.777 12.232 11.375 12.87 11.831 31.87 29.303 38.883 36.932 41.942 45.615 64.599 108.557 64.599 220.89 0 173.615 95.375 293.507 219.106 329.421 4.476 11.543 11.537 22.275 21.129 31.282 32.845 30.845 84.019 30.845 116.864 0 9.613-9.027 16.683-19.786 21.158-31.359zM434.287 106.411h151.812c-6.865-11.93-16.781-22.17-29.47-29.909-27.405-16.717-61.854-16.717-89.259 0-16.781 10.236-27.055 18.701-33.084 29.909zM853.333 215.68c-12.732 11.708-31.974 29.628-40.951 39.433-56.926 62.157-87.049 145.839-87.049 278.383 0 160.73-99.853 255.363-213.333 255.363-113.802 0-213.333-94.147-213.333-255.363 0-132.971-30.113-216.628-87.104-278.609-8.963-9.749-28.263-27.652-40.896-39.223v-23.957h682.667v23.974zM682.667 405.534v85.295h-341.333v-85.295h341.333z" />
<glyph unicode="&#xe965;" glyph-name="bell-no" d="M810.667 329.391v204.105c0 173.118-95.505 293.273-219.081 329.345-4.471 11.573-11.546 22.331-21.158 31.359-32.841 30.845-84.019 30.845-116.86 0-9.591-9.008-16.653-19.739-21.129-31.282-36.994-10.737-71.451-28.981-101.583-53.923l60.667-60.641c34.767 26.485 76.556 40.506 120.477 40.506 113.481 0 213.333-94.633 213.333-255.363 0-50.505 4.373-93.914 12.932-131.742l72.401-72.363zM601.079 3.691c39.236 23.936 65.549 60.719 76.224 102.72h115.947l115.243-115.247 60.343 60.339-853.335 853.334-60.34-60.34 178.961-178.961c-13.377-39.399-20.792-83.631-20.792-132.039 0-112.333-22.656-175.275-64.599-220.89-7.012-7.629-26.012-25.097-38.882-36.932-6.089-5.598-10.806-9.937-12.233-11.375l-12.287-12.454v-145.434h259.754c8.783-45.295 33.37-75.601 77.833-102.72 54.697-33.365 123.462-33.365 178.161 0zM304.004 595.654l403.947-403.949h-537.286v23.957c12.633 11.571 31.933 29.474 40.896 39.223 56.992 61.982 87.104 145.638 87.104 278.609 0 21.99 1.852 42.733 5.339 62.159zM434.287 106.411h151.812c-6.869-11.93-16.785-22.17-29.474-29.909-27.401-16.717-61.854-16.717-89.254 0-16.781 10.236-27.055 18.701-33.084 29.909z" />
<glyph unicode="&#xe966;" glyph-name="info" d="M42.667 448c0-259.204 210.128-469.333 469.333-469.333 259.204 0 469.333 210.129 469.333 469.333 0 259.206-210.129 469.333-469.333 469.333-259.206 0-469.333-210.128-469.333-469.333zM896 448c0-212.079-171.921-384-384-384-212.077 0-384 171.921-384 384 0 212.077 171.923 384 384 384 212.079 0 384-171.923 384-384zM554.82 362.739h42.641v-85.333h-170.667v85.333h42.667v85.333h-42.667v85.331h128.026v-170.665zM554.697 618.737c0-23.564-19.11-42.667-42.684-42.667-23.569 0-42.679 19.103-42.679 42.667s19.11 42.667 42.679 42.667c23.573 0 42.684-19.102 42.684-42.667z" />
<glyph unicode="&#xe967;" glyph-name="minus-octagon" d="M981.333 642.404v-388.806l-274.931-274.931h-388.806l-274.929 274.931v388.806l274.929 274.929h388.806l274.931-274.929zM671.057 832h-318.115l-224.942-224.942v-318.115l224.942-224.943h318.115l224.943 224.943v318.115l-224.943 224.942zM725.333 490.667h-426.667v-85.333h426.667v85.333z" />
<glyph unicode="&#xe968;" glyph-name="question-circle" d="M42.667 448c0-259.204 210.128-469.333 469.333-469.333 259.204 0 469.333 210.129 469.333 469.333 0 259.206-210.129 469.333-469.333 469.333-259.206 0-469.333-210.128-469.333-469.333zM896 448c0-212.079-171.921-384-384-384-212.077 0-384 171.921-384 384 0 212.077 171.923 384 384 384 212.079 0 384-171.923 384-384zM512.013 234.739c23.573 0 42.684 19.102 42.684 42.667 0 23.561-19.11 42.667-42.684 42.667-23.569 0-42.679-19.106-42.679-42.667 0-23.565 19.11-42.667 42.679-42.667zM469.333 362.667h85.333c0 34.065 5.35 40.307 40.414 57.839 60.937 30.468 87.586 61.559 87.586 134.161 0 92.986-73.203 149.333-170.667 149.333-94.257 0-170.667-76.41-170.667-170.667h85.333c0 47.128 38.204 85.333 85.333 85.333 54.494 0 85.333-23.74 85.333-64 0-34.065-5.35-40.307-40.414-57.839-60.937-30.468-87.586-61.559-87.586-134.161z" />
<glyph unicode="&#xe969;" glyph-name="x-octagon" d="M706.402 917.333l274.931-274.929v-388.806l-274.931-274.931h-388.806l-274.929 274.931v388.806l274.929 274.929h388.806zM671.057 832h-318.115l-224.942-224.942v-318.115l224.942-224.943h318.115l224.943 224.943v318.115l-224.943 224.942zM371.503 247.164l140.497 140.497 140.497-140.497 60.339 60.339-140.497 140.497 140.497 140.497-60.339 60.34-140.497-140.497-140.497 140.497-60.34-60.34 140.497-140.497-140.497-140.497 60.34-60.339z" />
<glyph unicode="&#xe96a;" glyph-name="add-to-library" d="M640 106.667v-85.333h-469.333c-47.128 0-85.333 38.204-85.333 85.333v682.667c0 47.128 38.205 85.333 85.333 85.333h682.667c47.13 0 85.333-38.205 85.333-85.333v-426.667h-85.333v426.667h-682.667v-682.667h469.333zM512 655.724v-213.718c-13.461 3.904-27.857 5.995-42.667 5.995-68.462 0-128-44.655-128-106.667s59.538-106.667 128-106.667c68.463 0 128 44.655 128 106.667v154.944l61.666-41.114 47.334 71.006-194.334 129.554zM725.333 64h85.333v-85.333h85.333v85.333h85.333v85.333h-85.333v85.333h-85.333v-85.333h-85.333v-85.333zM512 341.333c0-8.678-16.87-21.333-42.667-21.333s-42.667 12.655-42.667 21.333c0 8.678 16.87 21.333 42.667 21.333s42.667-12.655 42.667-21.333z" />
<glyph unicode="&#xe96b;" glyph-name="artist" d="M591.804 379.26c-68.292 25.933-122.611 80.252-148.544 148.544l-259.852-373.538 34.86-34.859 373.537 259.853zM429.611 657.612c18.761 122.902 124.911 217.055 253.056 217.055 141.385 0 256-114.615 256-256 0-128.145-94.153-234.3-217.054-253.056l-513.212-357.018-135.807 135.808 357.017 513.211zM832.926 537.672c13.018 24.098 20.407 51.684 20.407 80.995 0 94.257-76.407 170.667-170.667 170.667-29.594 0-57.429-7.533-81.694-20.787 12.907-40.275 57.297-107.809 90.53-141.043 32.691-32.691 99.059-76.092 141.423-89.832zM769.412 471.659c-25.421-15.031-55.074-23.659-86.746-23.659-94.255 0-170.667 76.412-170.667 170.667 0 31.384 8.474 60.789 23.253 86.054 23.753-50.516 61.862-103.509 95.91-137.558 33.613-33.612 87.083-71.633 138.249-95.505z" />
<glyph unicode="&#xe96c;" glyph-name="CD" d="M512-21.333c-259.206 0-469.333 210.129-469.333 469.333 0 259.206 210.128 469.333 469.333 469.333 259.204 0 469.333-210.128 469.333-469.333 0-259.204-210.129-469.333-469.333-469.333zM512 64c212.079 0 384 171.921 384 384 0 212.077-171.921 384-384 384-212.077 0-384-171.923-384-384 0-212.079 171.923-384 384-384zM512 746.667v-85.333c117.82 0 213.333-95.513 213.333-213.333h85.333c0 164.949-133.717 298.667-298.667 298.667zM512 320c-70.694 0-128 57.306-128 128s57.306 128 128 128c70.694 0 128-57.306 128-128s-57.306-128-128-128zM554.667 448c0-23.565-19.102-42.667-42.667-42.667s-42.667 19.102-42.667 42.667c0 23.565 19.102 42.667 42.667 42.667s42.667-19.102 42.667-42.667z" />
<glyph unicode="&#xe96d;" glyph-name="eject" d="M170.667 234.667c-34.077 0-54.403 37.978-35.501 66.334l341.335 512c16.887 25.332 54.11 25.332 71.002 0l341.333-512c18.901-28.356-1.425-66.334-35.503-66.334h-682.667zM773.611 320l-261.611 392.415-261.61-392.415h523.22zM128 149.333v-85.333h768v85.333h-768z" />
<glyph unicode="&#xe96e;" glyph-name="equalizer" d="M725.333 832v-85.333h256v85.333h-256zM42.667 661.333v-85.333h256v85.333h-256zM42.667 405.333v85.333h256v-85.333h-256zM42.667 320v-85.333h256v85.333h-256zM42.667 149.333v-85.333h256v85.333h-256zM384 64v85.333h256v-85.333h-256zM384 320v-85.333h256v85.333h-256zM384 405.333v85.333h256v-85.333h-256zM725.333 149.333v-85.333h256v85.333h-256zM725.333 234.667v85.333h256v-85.333h-256zM725.333 490.667v-85.333h256v85.333h-256zM725.333 576v85.333h256v-85.333h-256z" />
<glyph unicode="&#xe96f;" glyph-name="listen-later" d="M426.667 234.667h-298.667v597.333h597.333v-298.667h85.333v298.667c0 47.128-38.204 85.333-85.333 85.333h-597.333c-47.128 0-85.333-38.205-85.333-85.333v-597.333c0-47.13 38.205-85.333 85.333-85.333h298.667v85.333zM341.333 661.333v-256l170.667 128-170.667 128zM469.333 234.667c0 141.385 114.615 256 256 256s256-114.615 256-256c0-141.385-114.615-256-256-256s-256 114.615-256 256zM725.333 64c94.255 0 170.667 76.412 170.667 170.667s-76.412 170.667-170.667 170.667c-94.255 0-170.667-76.412-170.667-170.667s76.412-170.667 170.667-170.667zM682.667 362.667h85.333v-85.333h85.333v-85.333h-170.667v170.667z" />
<glyph unicode="&#xe970;" glyph-name="music-library" d="M768 64c47.13 0 85.333 38.204 85.333 85.333h42.667c47.13 0 85.333 38.204 85.333 85.333v426.667c0 47.128-38.204 85.333-85.333 85.333h-42.667c0 47.128-38.204 85.333-85.333 85.333h-512c-47.128 0-85.333-38.205-85.333-85.333h-42.667c-47.128 0-85.333-38.205-85.333-85.333v-426.667c0-47.13 38.205-85.333 85.333-85.333h42.667c0-47.13 38.205-85.333 85.333-85.333h512zM768 746.667v-597.333h-512v597.333h512zM512 442.005v213.718l194.334-129.554-47.334-71.006-61.666 41.114v-154.944c0-62.012-59.537-106.667-128-106.667s-128 44.655-128 106.667 59.538 106.667 128 106.667c14.81 0 29.205-2.091 42.667-5.995zM128 661.333h42.667v-426.667h-42.667v426.667zM853.333 234.667h42.667v426.667h-42.667v-426.667zM512 341.333c0-8.678-16.87-21.333-42.667-21.333s-42.667 12.655-42.667 21.333c0 8.678 16.87 21.333 42.667 21.333s42.667-12.655 42.667-21.333z" />
<glyph unicode="&#xe971;" glyph-name="music-note" d="M426.667 454.519l426.667 71.113v-182.874c-25.259 12.71-54.477 19.908-85.333 19.908-92.71 0-170.667-64.964-170.667-149.333 0-84.373 77.956-149.333 170.667-149.333s170.667 64.96 170.667 149.333v669.031l-597.333-99.555v-482.717c-25.257 12.71-54.478 19.908-85.333 19.908-92.711 0-170.667-64.964-170.667-149.333 0-84.373 77.955-149.333 170.667-149.333s170.667 64.96 170.667 149.333v283.853zM341.333 170.667c0-33.451-36.66-64-85.333-64s-85.333 30.549-85.333 64c0 33.446 36.66 64 85.333 64s85.333-30.554 85.333-64zM768 149.333c48.674 0 85.333 30.549 85.333 64 0 33.446-36.659 64-85.333 64s-85.333-30.554-85.333-64c0-33.451 36.659-64 85.333-64zM426.667 541.031v169.489l426.667 71.111v-169.489l-426.667-71.111z" />
<glyph unicode="&#xe972;" glyph-name="player-fast-back" d="M99.904 415.889l341.333-298.667c27.588-24.137 70.763-4.548 70.763 32.111v597.334c0 36.657-43.174 56.249-70.763 32.11l-341.333-298.666c-19.427-16.998-19.427-47.223 0-64.222zM526.571 415.889l341.333-298.667c27.588-24.137 70.763-4.548 70.763 32.111v597.334c0 36.657-43.174 56.249-70.763 32.11l-341.333-298.666c-19.426-16.998-19.426-47.223 0-64.222zM426.667 652.64l-233.873-204.64 233.873-204.638v409.277zM853.333 652.64v-409.277l-233.873 204.638 233.873 204.64z" />
<glyph unicode="&#xe973;" glyph-name="player-fast-forward" d="M85.333 746.667v-597.334c0-36.659 43.175-56.247 70.763-32.111l341.333 298.667c19.426 16.998 19.426 47.223 0 64.222l-341.333 298.666c-27.587 24.139-70.763 4.548-70.763-32.11zM404.54 448l-233.873-204.638v409.277l233.873-204.64zM512 746.667c0 36.657 43.174 56.249 70.763 32.11l341.333-298.666c19.426-16.998 19.426-47.223 0-64.222l-341.333-298.667c-27.588-24.137-70.763-4.548-70.763 32.111v597.334zM597.333 652.64l233.873-204.64-233.873-204.638v409.277z" />
<glyph unicode="&#xe974;" glyph-name="player-list" d="M768 356.672v213.718l194.334-129.554-47.334-71.006-61.666 41.114v-154.944c0-62.012-59.537-106.667-128-106.667s-128 44.655-128 106.667c0 62.012 59.537 106.667 128 106.667 14.81 0 29.205-2.091 42.667-5.995zM170.667 149.333v85.333h341.333v-85.333h-341.333zM170.667 320v85.333h341.333v-85.333h-341.333zM170.667 490.667v85.333h512v-85.333h-512zM170.667 661.333v85.333h640v-85.333h-640zM725.333 234.667c25.796 0 42.667 12.655 42.667 21.333s-16.87 21.333-42.667 21.333c-25.796 0-42.667-12.655-42.667-21.333s16.87-21.333 42.667-21.333z" />
<glyph unicode="&#xe975;" glyph-name="player-list-add" d="M170.667 746.667v-85.333h640v85.333h-640zM170.667 490.667v85.333h640v-85.333h-640zM768 234.667h-85.333v85.333h85.333v85.333h85.333v-85.333h85.333v-85.333h-85.333v-85.333h-85.333v85.333zM170.667 149.333v85.333h426.667v-85.333h-426.667zM170.667 405.333v-85.333h426.667v85.333h-426.667z" />
<glyph unicode="&#xe976;" glyph-name="player-list-play" d="M170.667 661.333v85.333h640v-85.333h-640zM170.667 576v-85.333h640v85.333h-640zM170.667 320v85.333h512v-85.333h-512zM170.667 149.333v85.333h512v-85.333h-512zM938.667 277.333l-170.667 128v-256l170.667 128z" />
<glyph unicode="&#xe977;" glyph-name="player-pause" d="M384 874.667c47.13 0 85.333-38.205 85.333-85.333v-682.667c0-47.13-38.204-85.333-85.333-85.333h-85.333c-47.128 0-85.333 38.204-85.333 85.333v682.667c0 47.128 38.205 85.333 85.333 85.333h85.333zM725.333 874.667h-85.333c-47.13 0-85.333-38.205-85.333-85.333v-682.667c0-47.13 38.204-85.333 85.333-85.333h85.333c47.13 0 85.333 38.204 85.333 85.333v682.667c0 47.128-38.204 85.333-85.333 85.333zM298.667 789.333v-682.667h85.333v682.667h-85.333zM640 106.667v682.667h85.333v-682.667h-85.333z" />
<glyph unicode="&#xe978;" glyph-name="player-pause-circle" d="M42.667 448c0-259.204 210.128-469.333 469.333-469.333 259.204 0 469.333 210.129 469.333 469.333 0 259.206-210.129 469.333-469.333 469.333-259.206 0-469.333-210.128-469.333-469.333zM896 448c0-212.079-171.921-384-384-384-212.077 0-384 171.921-384 384 0 212.077 171.923 384 384 384 212.079 0 384-171.923 384-384zM384 661.333h85.333v-426.667h-85.333v426.667zM640 661.333h-85.333v-426.667h85.333v426.667z" />
<glyph unicode="&#xe979;" glyph-name="player-play" d="M213.333 832.003v-767.999c0-33.758 37.344-54.144 65.739-35.891l597.335 384c26.125 16.794 26.125 54.985 0 71.782l-597.335 383.998c-28.395 18.254-65.739-2.134-65.739-35.89zM774.43 448.004l-475.763-305.852v611.7l475.763-305.848z" />
<glyph unicode="&#xe97a;" glyph-name="player-play-circle" d="M981.333 448c0-259.204-210.129-469.333-469.333-469.333-259.206 0-469.333 210.129-469.333 469.333 0 259.206 210.128 469.333 469.333 469.333s469.333-210.128 469.333-469.333zM128 448c0-212.079 171.923-384 384-384 212.079 0 384 171.921 384 384 0 212.077-171.921 384-384 384-212.077 0-384-171.923-384-384zM341.333 661.333c0 33.512 36.862 53.943 65.28 36.181l341.333-213.333c26.739-16.713 26.739-55.65 0-72.363l-341.333-213.333c-28.418-17.762-65.28 2.671-65.28 36.181v426.667zM426.667 584.352l218.163-136.352-218.163-136.354v272.706z" />
<glyph unicode="&#xe97b;" glyph-name="player-play-pause" d="M85.333 831.995v-768c0-35.162 40.139-55.228 68.267-34.133l512 384c22.754 17.067 22.754 51.2 0 68.267l-512 384c-28.128 21.096-68.267 1.026-68.267-34.133zM568.887 447.996l-398.221-298.667v597.333l398.221-298.666zM938.667 21.329h-85.333v853.333h85.333v-853.333zM725.333 21.329h85.333v853.333h-85.333v-853.333z" />
</font>
</defs>
</svg>
